<?xml version="1.0" standalone="no"?><!DOCTYPE svg PUBLIC "-//W3C//DTD SVG 1.1//EN" "http://www.w3.org/Graphics/SVG/1.1/DTD/svg11.dtd"><svg t="1699712421431" class="icon" viewBox="0 0 1024 1024" version="1.1" xmlns="http://www.w3.org/2000/svg" p-id="29029" xmlns:xlink="http://www.w3.org/1999/xlink" width="200" height="200"><path d="M789.69600031 542.07999969c0 33.55999969 27.30400031 60.85600031 60.85599938 60.85600031 33.576 0 60.888-27.29599969 60.888-60.85600031 0-25.00000031-15.17599969-46.512-36.79999969-55.86399938V275.59200031l13.27999969-6.65600062a26.48800031 26.48800031 0 0 0 14.57600062-24.48 26.47999969 26.47999969 0 0 0-16.13600062-23.40799969L479.82399969 49.96800031a26.80000031 26.80000031 0 0 0-23.63199938 1.704L125.432 248.264a26.46400031 26.46400031 0 0 0-12.73600031 25.30399969 26.32000031 26.32000031 0 0 0 17.51200031 22.248l139.32 48.85600031a255.456 255.456 0 0 0-18.816 96.336c0 98.352 55.59199969 183.91999969 136.968 227.064-121.44 41.832-216.63199969 145.25599969-243.432 276.096-1.37599969 6.66400031-0.072 13.464 3.672 19.128a25.344 25.344 0 0 0 21.28000031 11.40799969 25.584 25.584 0 0 0 24.91999969-20.28c30.288-148.11199969 162.20800031-255.6 313.66399969-255.6 149.91199969 0 281.64 108.096 313.21600031 257.04800062a25.704 25.704 0 0 0 30.20800031 19.608 25.344 25.344 0 0 0 16.06399969-11.04800062 25.15999969 25.15999969 0 0 0 3.54400031-19.14399938c-27.83200031-131.256-123.07999969-235.032-243.68800031-277.06400062 81.52000031-43.104 137.23999969-128.74399969 137.28-227.19999938 0-35.472-7.23199969-69.28000031-20.29600031-100.04000062l82.32800062-41.232V486.24000031c-21.59200031 9.34399969-36.744 30.84799969-36.744 55.83999938z m60.85599938 12.66400031c-6.984 0-12.66400031-5.68000031-12.66399938-12.66400031a12.672 12.672 0 0 1 25.35999938 0c0 6.984-5.69599969 12.66400031-12.696 12.66400031zM507.56 646.91199969c-113.56000031 0-205.944-92.38399969-205.944-205.944 0-56.496 22.86400031-107.736 59.82400031-144.97599938a222.68800031 222.68800031 0 0 1 146.12799938-54.68800031c54.24 0 105.71200031 19.73599969 145.84000031 54.40000031 37.128 37.26400031 60.11200031 88.62400031 60.11200031 145.26399938-0.00799969 113.56000031-92.39200031 205.944-205.96000031 205.944z m152.80000031-412.20799969a255.504 255.504 0 0 0-152.80000031-50.52799969c-59.22400031 0-113.80000031 20.20000031-157.296 54.01599938a276.66400031 276.66400031 0 0 0-60.936 57.552L200.96 264.75999969 471.752 103.832l341.34400031 143.67199969-89.80000031 44.96000062a277.896 277.896 0 0 0-62.93599969-57.76000031z" fill="#0081c4" p-id="29030"></path></svg>