<?xml version="1.0" standalone="no"?><!DOCTYPE svg PUBLIC "-//W3C//DTD SVG 1.1//EN" "http://www.w3.org/Graphics/SVG/1.1/DTD/svg11.dtd"><svg t="1699712708462" class="icon" viewBox="0 0 1024 1024" version="1.1" xmlns="http://www.w3.org/2000/svg" p-id="30246" xmlns:xlink="http://www.w3.org/1999/xlink" width="200" height="200"><path d="M846.848 348.672c-6.144 4.608-28.16 18.944-67.072 18.944-44.032 0-62.464-14.336-67.072-18.944v-56.32l67.072 27.648 67.072-27.648v56.32z m-156.16-65.536l12.288 5.12v64.512l1.024 1.536c1.024 1.024 19.456 23.552 75.776 23.552 49.152 0 74.24-22.016 75.264-23.04l1.536-1.536V288.256l25.6-10.752V348.16c-2.56 3.584-4.608 9.216-4.608 12.8 0 5.12 4.096 9.216 9.216 9.216s9.216-4.096 9.216-9.216c0-3.584-2.048-9.216-4.608-12.8V273.92l12.288-5.12-123.904-50.688-89.6 36.864s1.024 2.56 2.048 4.608c1.024 3.072 1.536 5.12 1.536 5.12l85.504-35.328 95.232 38.912-18.432 7.68-9.728 4.096-67.072 27.648-67.072-27.648-9.728-4.096-8.704-3.584s-0.512 2.56-1.536 5.12c0 3.072-1.536 5.632-1.536 5.632zM360.448 291.328v-17.408l12.288-5.12-123.904-50.688-123.904 50.688 47.104 19.456v64.512l1.024 1.536c1.024 1.024 19.456 23.552 75.776 23.552 49.152 0 74.24-22.016 75.264-23.04l1.536-1.536V288.256l25.6-10.752v27.136l9.216-13.312z m-44.544 57.344c-6.144 4.608-28.16 18.944-67.072 18.944-44.032 0-62.464-14.336-67.072-18.944v-56.32l67.072 27.648 67.072-27.648v56.32zM153.6 268.8l95.232-38.912 95.232 38.912-18.432 7.68-9.728 4.096-67.072 27.648-67.072-27.648-9.728-4.096-18.432-7.68z" fill="#FF93AD" p-id="30247"></path><path d="M823.808 603.648c52.224-20.992 89.6-72.192 89.6-132.096 0-34.304-12.288-65.536-32.256-90.112-7.68-2.048-13.312-8.192-14.848-15.872l-2.048-2.048c-1.536 1.536-9.216 7.68-23.04 13.824 28.16 21.504 46.592 55.296 46.592 93.184 0 64.512-52.736 117.248-117.248 117.248-47.616 0-88.576-28.672-107.008-69.12-5.632 7.168-11.776 13.824-18.432 19.968 15.872 29.184 41.472 51.712 72.192 64.512-2.048 1.024-4.608 1.536-6.656 2.56 7.68 5.632 14.336 11.776 20.992 18.944 12.288-4.096 25.6-6.144 38.912-6.144 96.768 0 172.032 108.032 172.032 201.216 0 67.584-143.36 71.168-172.032 71.168h-2.048c-4.096 9.216-9.728 17.408-16.384 25.088 6.656 0 12.8 0.512 18.432 0.512 46.08 0 197.12-7.168 197.12-96.256 0-87.04-59.904-185.856-143.872-216.576zM253.44 588.8c-64.512 0-117.248-52.736-117.248-117.248 0-38.4 18.944-72.704 47.616-94.208-13.824-6.656-19.968-13.824-20.992-15.36l-0.512-0.512c-31.744 26.112-51.712 65.536-51.712 110.08 0 59.904 36.864 111.104 89.6 132.096-84.48 30.72-144.384 129.536-144.384 217.088 0 87.04 138.24 96.256 197.12 96.256 5.12 0 10.752 0 17.92-0.512-6.656-7.68-11.776-15.872-15.872-25.088h-2.048c-28.672 0-172.032-3.584-172.032-71.168 0-93.184 75.264-201.216 172.032-201.216 27.136 0 52.224 8.704 75.264 23.04l16.896-18.432c-12.288-8.192-25.088-15.36-38.912-19.968 30.72-12.288 56.32-35.328 72.192-64.512-6.656-6.144-12.8-12.8-18.432-19.968-17.92 40.96-58.88 69.632-106.496 69.632z" fill="#FF93AD" p-id="30248"></path><path d="M628.224 717.824m-113.664 0a113.664 113.664 0 1 0 227.328 0 113.664 113.664 0 1 0-227.328 0Z" fill="#FFF3BF" p-id="30249"></path><path d="M753.664 776.704c-5.12 10.752-11.264 20.48-18.944 29.696 2.56 15.36 4.096 30.208 4.096 45.056 0 91.136-188.928 95.744-226.816 95.744-53.248 0-226.816-7.168-226.816-95.744 0-122.368 98.816-264.704 226.816-264.704 17.92 0 35.328 3.072 51.712 8.192 11.264-5.632 23.04-10.24 35.328-12.8-9.728-4.608-19.456-8.704-29.184-11.776 71.68-24.064 122.88-91.648 122.88-171.52 0-50.176-20.992-96.256-54.272-129.024l-2.048 2.048c-0.512 0.512-7.168 6.144-18.944 13.312 30.72 28.672 49.664 69.12 49.664 113.664 0 86.016-69.632 155.648-155.648 155.648-86.016 0-155.648-69.632-155.648-155.648 0-44.544 18.944-84.48 48.64-113.152-12.288-7.168-18.432-13.824-19.968-15.872-32.768 32.768-53.248 78.336-53.248 129.024 0 79.36 51.712 146.944 122.88 171.52-112.64 34.816-194.048 165.888-194.048 281.088 0 109.568 176.128 121.344 251.904 121.344 59.392 0 251.904-8.704 251.904-121.344 0.512-24.576-3.584-49.664-10.24-74.752z" fill="#E13767" p-id="30250"></path><path d="M393.216 259.584l1.536 2.048c1.024 1.536 30.208 36.352 117.248 36.352 76.288 0 114.688-34.304 116.224-35.328l2.56-2.048V159.232l39.936-16.384v109.056c-4.096 5.632-7.168 14.336-7.168 19.968 0 7.68 6.144 14.336 14.336 14.336s14.336-6.144 14.336-14.336c0-5.12-3.072-14.336-7.168-19.968V137.216l18.944-7.68L512 51.2 320.512 129.536l72.704 29.696v100.352z m222.72-6.656c-9.216 7.168-43.52 29.696-103.424 29.696-67.584 0-96.768-22.528-103.424-29.184V165.888l103.424 42.496 103.424-42.496v87.04zM364.544 129.536L512 69.12l147.456 60.416-28.672 11.776-15.36 6.144-103.424 42.496-103.424-42.496-15.36-6.144-28.672-11.776zM502.272 717.824c0 47.104 26.112 88.064 64.512 110.08h-0.512V906.24l60.928-40.96 60.928 43.52v-79.872c39.424-21.504 66.048-62.976 66.048-111.104 0-69.632-56.32-125.952-125.952-125.952-69.632-0.512-125.952 56.32-125.952 125.952z m176.64 173.056l-51.712-36.864-51.712 34.816v-56.832c15.872 7.68 33.792 11.776 52.736 11.776 17.92 0 35.328-4.096 50.688-10.752V890.88z m62.976-173.056c0 62.464-50.688 113.664-113.664 113.664s-113.664-50.688-113.664-113.664c0-62.464 50.688-113.664 113.664-113.664s113.664 50.688 113.664 113.664z" fill="#E13767" p-id="30251"></path><path d="M533.504 717.824c0 52.224 42.496 94.72 94.72 94.72s94.72-42.496 94.72-94.72-42.496-94.72-94.72-94.72-94.72 42.496-94.72 94.72z m94.72-81.92c45.056 0 81.92 36.864 81.92 81.92s-36.864 81.92-81.92 81.92-81.92-36.864-81.92-81.92 36.864-81.92 81.92-81.92z" fill="#E13767" p-id="30252"></path><path d="M593.408 734.208l-8.192 47.616 43.008-22.528 43.008 22.528-8.192-47.616 34.816-33.792-47.616-7.168-21.504-43.52-21.504 43.52-47.616 7.168 33.792 33.792z m22.016-28.672l12.8-26.624 12.8 26.624 29.184 4.096-20.992 20.48 5.12 29.184-26.112-13.824-26.112 13.824 5.12-29.184-20.992-20.48 29.184-4.096z" fill="#E13767" p-id="30253"></path><path d="M628.224 678.912l-13.312 26.624-29.184 4.096 20.992 20.48-4.608 28.672 26.112-13.312 25.6 13.312-4.608-28.672 20.992-20.48-29.184-4.096z" fill="#FFDC50" p-id="30254"></path><path d="M678.912 890.88l-51.712-36.864-51.712 34.816v-56.832c15.872 7.68 33.792 11.776 52.736 11.776 17.92 0 35.328-4.096 50.688-10.752V890.88z" fill="#FF93AD" p-id="30255"></path></svg>