<?xml version="1.0" standalone="no"?><!DOCTYPE svg PUBLIC "-//W3C//DTD SVG 1.1//EN" "http://www.w3.org/Graphics/SVG/1.1/DTD/svg11.dtd"><svg t="1699712672830" class="icon" viewBox="0 0 1024 1024" version="1.1" xmlns="http://www.w3.org/2000/svg" p-id="30088" xmlns:xlink="http://www.w3.org/1999/xlink" width="200" height="200"><path d="M526.5408 79.872l336.896 180.224v1.024l-42.8032 23.9616v209.92a23.3472 23.3472 0 0 1-18.6368 23.552 22.3232 22.3232 0 0 1-25.3952-21.9136v-185.7536l-233.472 130.6624a45.2608 45.2608 0 0 1-44.2368 0L160.5632 261.12v-1.024l321.536-179.8144a45.6704 45.6704 0 0 1 44.4416-0.4096zM525.5168 854.016l-71.0656-62.0544 61.2352-152.7808 53.8624 155.4432-44.032 59.392z" fill="#8EB9FF" p-id="30089"></path><path d="M616.2432 557.6704a180.6336 180.6336 0 0 0 73.3184-202.9568 182.8864 182.8864 0 0 0-348.16 0 180.224 180.224 0 0 0 73.1136 202.9568A292.4544 292.4544 0 0 0 195.7888 829.0304c0 80.4864 160.1536 120.6272 319.8976 120.6272s319.0784-40.96 319.0784-120.6272a292.6592 292.6592 0 0 0-218.5216-272.5888z" fill="#2178FF" p-id="30090"></path><path d="M555.008 793.6l-40.5504 40.3456-40.5504-40.3456 40.5504-131.4816 40.5504 131.4816zM378.6752 406.9376a136.3968 136.3968 0 1 1 212.992 112.0256 137.4208 137.4208 0 0 1-172.4416-15.9744 135.7824 135.7824 0 0 1-40.96-96.0512z" fill="#2178FF" p-id="30091"></path><path d="M515.6864 904.6016c-167.1168 0-273.6128-45.056-273.6128-73.9328A255.7952 255.7952 0 0 1 489.2672 587.776l-61.44 205.824a22.3232 22.3232 0 0 0 6.144 22.528L499.9168 880.64A22.9376 22.9376 0 0 0 532.48 880.64l64.9216-66.56a22.7328 22.7328 0 0 0 6.144-22.528l-61.44-204.8a256 256 0 0 1 247.1936 242.2784c0 29.0816-106.7008 74.1376-273.6128 74.1376z" fill="#2178FF" p-id="30092"></path><path d="M775.5776 783.36a5.5296 5.5296 0 0 0-1.6384-4.096 6.144 6.144 0 0 0-4.096-1.6384h-8.6016a9.4208 9.4208 0 0 1-8.6016-6.3488l-4.5056-10.8544a9.216 9.216 0 0 1 1.4336-10.4448l6.3488-6.3488a5.5296 5.5296 0 0 0 1.6384-3.8912 5.7344 5.7344 0 0 0-1.6384-4.096l-10.6496-10.6496a5.7344 5.7344 0 0 0-4.096-1.6384 5.5296 5.5296 0 0 0-3.8912 1.6384l-6.3488 6.3488a9.216 9.216 0 0 1-10.4448 1.4336l-11.0592-4.5056a9.6256 9.6256 0 0 1-6.144-8.6016v-8.6016a5.7344 5.7344 0 0 0-1.6384-4.096 5.5296 5.5296 0 0 0-4.096-1.6384h-14.9504a5.5296 5.5296 0 0 0-4.096 1.6384 5.7344 5.7344 0 0 0-1.6384 4.096v8.6016a9.4208 9.4208 0 0 1-6.3488 8.6016l-10.8544 4.5056a9.216 9.216 0 0 1-10.4448-1.4336l-6.3488-6.3488a5.7344 5.7344 0 0 0-4.096-1.6384 5.5296 5.5296 0 0 0-3.8912 1.6384l-10.6496 10.6496a5.7344 5.7344 0 0 0-1.6384 4.096 5.5296 5.5296 0 0 0 1.6384 3.8912l6.3488 6.3488a9.216 9.216 0 0 1 1.4336 10.4448l-4.5056 11.0592a9.6256 9.6256 0 0 1-8.6016 6.144h-8.6016a5.7344 5.7344 0 0 0-4.096 1.6384 5.5296 5.5296 0 0 0-1.6384 4.096V798.72a5.5296 5.5296 0 0 0 1.6384 4.096 5.7344 5.7344 0 0 0 4.096 1.6384h8.6016a9.4208 9.4208 0 0 1 8.6016 6.3488l4.5056 10.8544a9.216 9.216 0 0 1-1.4336 10.4448l-6.3488 6.3488a5.5296 5.5296 0 0 0-1.6384 3.8912 5.7344 5.7344 0 0 0 1.6384 4.096l10.6496 10.6496a5.5296 5.5296 0 0 0 3.8912 1.6384 5.7344 5.7344 0 0 0 4.096-1.6384l6.3488-6.3488a9.216 9.216 0 0 1 10.4448-1.4336l10.8544 4.5056a9.4208 9.4208 0 0 1 6.3488 8.6016v8.6016a5.7344 5.7344 0 0 0 1.6384 4.096 5.5296 5.5296 0 0 0 4.096 1.6384h14.9504a5.5296 5.5296 0 0 0 4.096-1.6384 5.7344 5.7344 0 0 0 1.6384-4.096v-8.6016a9.6256 9.6256 0 0 1 6.144-8.6016l11.0592-4.5056a9.216 9.216 0 0 1 10.4448 1.4336l6.3488 6.3488a5.5296 5.5296 0 0 0 3.8912 1.6384 5.7344 5.7344 0 0 0 4.096-1.6384l10.6496-10.6496a5.7344 5.7344 0 0 0 1.6384-4.096 5.5296 5.5296 0 0 0-1.6384-3.8912l-6.3488-6.3488a9.216 9.216 0 0 1-1.4336-10.4448l4.5056-10.8544a9.4208 9.4208 0 0 1 8.6016-6.3488h8.6016a6.144 6.144 0 0 0 4.096-1.6384 5.5296 5.5296 0 0 0 1.6384-4.096v-14.9504z m-52.6336 7.3728A32.9728 32.9728 0 1 1 690.176 757.76a32.9728 32.9728 0 0 1 32.768 32.768z" fill="#FFFFFF" p-id="30093"></path></svg>