<?xml version="1.0" standalone="no"?><!DOCTYPE svg PUBLIC "-//W3C//DTD SVG 1.1//EN" "http://www.w3.org/Graphics/SVG/1.1/DTD/svg11.dtd"><svg t="1719498015849" class="icon" viewBox="0 0 1024 1024" version="1.1" xmlns="http://www.w3.org/2000/svg" p-id="72626" xmlns:xlink="http://www.w3.org/1999/xlink" width="200" height="200"><path d="M473.8 426.7c4.9 4.9 11.3 7.3 17.7 7.3s12.8-2.4 17.7-7.3l96.3-96.3c9.8-9.8 9.8-25.6 0-35.4-9.8-9.8-25.6-9.8-35.4 0l-78.6 78.6-37.6-37.6c-9.8-9.8-25.6-9.8-35.4 0-9.8 9.8-9.8 25.6 0 35.4l55.3 55.3zM914.6 784.3c-14.5-10.9-35-21-60.9-29.9-48.8-16.8-115.9-29.5-194-36.7-13.7-1.3-25.9 8.9-27.2 22.6-1.3 13.7 8.9 25.9 22.6 27.2 71.5 6.6 133 17.9 177.8 32.6 53.8 17.7 60.6 32.8 61 34.1-1.2 5.1-22.1 27-105.7 46.3-74.4 17.2-172.4 26.7-276.2 26.7-103.8 0-201.9-9.5-276.2-26.7-83.6-19.4-104.5-41.2-105.7-46.3 0.5-1.2 7.1-16.1 59.5-33.6 43.8-14.6 104-25.9 174.1-32.7 13.7-1.3 23.8-13.5 22.5-27.3-1.3-13.7-13.5-23.8-27.3-22.5-76.7 7.4-142.5 20.1-190.3 36.7-25.4 8.9-45.6 18.9-59.8 29.7C85 802.6 80 821.4 80 834c0 22.9 15 43 44.6 59.9 22.5 12.8 54.1 24.2 93.7 33.7 78.7 19 183 29.4 293.6 29.4 110.6 0 214.9-10.4 293.6-29.4 39.7-9.6 71.2-20.9 93.7-33.7 29.6-16.9 44.6-37 44.6-59.9 0.1-12.5-5-31.5-29.2-49.7z" fill="#92b6ff" p-id="72627"></path><path d="M512 550.8c105.3 0 191-85.7 191-191s-85.7-191-191-191-191 85.7-191 191 85.7 191 191 191z m0-332.1c77.8 0 141 63.3 141 141 0 77.8-63.3 141-141 141s-141-63.3-141-141 63.2-141 141-141z" fill="#92b6ff" p-id="72628"></path><path d="M293.5 588.4l188.4 188.4c8.2 8.2 19 12.3 29.8 12.3s21.6-4.1 29.8-12.3l53.5-53.3c61.2-61.1 131.8-131.4 134.1-133.7 58.5-58.5 90.5-136.4 89.9-219.2-0.6-82.8-33.6-160.2-93-218-57.1-55.5-133-86-213.9-86-80.6 0-156.5 30.4-213.5 85.6-59.3 57.4-92.5 134.5-93.4 216.9-1 82.5 30.4 160.3 88.3 219-0.1 0.3-0.1 0.3 0 0.3z m39.8-400.1c47.6-46.1 111.1-71.5 178.7-71.5 67.8 0 131.4 25.5 179.1 71.9 49.7 48.4 77.4 113.2 77.9 182.5s-26.2 134.5-75.2 183.5c-2.2 2.2-72.8 72.6-134 133.6l-48 47.8-182.9-182.9c-48.4-49.2-74.6-114.3-73.8-183.3 0.8-69.1 28.6-133.6 78.2-181.6z" fill="#92b6ff" p-id="72629"></path></svg>