<?xml version="1.0" standalone="no"?><!DOCTYPE svg PUBLIC "-//W3C//DTD SVG 1.1//EN" "http://www.w3.org/Graphics/SVG/1.1/DTD/svg11.dtd"><svg t="1719497881810" class="icon" viewBox="0 0 1278 1024" version="1.1" xmlns="http://www.w3.org/2000/svg" p-id="69678" xmlns:xlink="http://www.w3.org/1999/xlink" width="249.609375" height="200"><path d="M59.45037 59.45037m14.862593 0l401.289997 0q14.862593 0 14.862593 14.862593l0 29.725185q0 14.862593-14.862593 14.862592l-401.289997 0q-14.862593 0-14.862593-14.862592l0-29.725185q0-14.862593 14.862593-14.862593Z" fill="#92b6ff" p-id="69679"></path><path d="M1166.713511 0a66.881666 66.881666 0 0 1 66.881667 66.881666v854.599069a66.881666 66.881666 0 0 1-66.881667 66.881666H66.881666a66.881666 66.881666 0 0 1-66.881666-66.881666V66.881666a66.881666 66.881666 0 0 1 66.881666-66.881666h1099.831845z m0 14.862593H66.881666a52.019074 52.019074 0 0 0-52.019073 52.019073v854.599069a52.019074 52.019074 0 0 0 52.019073 52.019074h1099.831845a52.019074 52.019074 0 0 0 52.019074-52.019074V66.881666a52.019074 52.019074 0 0 0-52.019074-52.019073z" fill="#92b6ff" p-id="69680"></path><path d="M66.881666 178.35111h1099.831845v7.431296H66.881666z" fill="#92b6ff" p-id="69681"></path><path d="M66.881666 423.583886m14.862593 0l178.35111 0q14.862593 0 14.862592 14.862593l0 468.171664q0 14.862593-14.862592 14.862592l-178.35111 0q-14.862593 0-14.862593-14.862592l0-468.171664q0-14.862593 14.862593-14.862593Z" fill="#92b6ff" fill-opacity=".179" p-id="69682"></path><path d="M341.839628 431.015183m14.862592 0l200.644999 0q14.862593 0 14.862592 14.862592l0 89.175555q0 14.862593-14.862592 14.862593l-200.644999 0q-14.862593 0-14.862592-14.862593l0-89.175555q0-14.862593 14.862592-14.862592Z" fill="#92b6ff" fill-opacity=".696" p-id="69683"></path><path d="M341.839628 616.797589m14.862592 0l200.644999 0q14.862593 0 14.862592 14.862592l0 89.175555q0 14.862593-14.862592 14.862593l-200.644999 0q-14.862593 0-14.862592-14.862593l0-89.175555q0-14.862593 14.862592-14.862592Z" fill="#92b6ff" fill-opacity=".696" p-id="69684"></path><path d="M341.839628 802.579995m14.862592 0l200.644999 0q14.862593 0 14.862592 14.862593l0 89.175555q0 14.862593-14.862592 14.862592l-200.644999 0q-14.862593 0-14.862592-14.862592l0-89.175555q0-14.862593 14.862592-14.862593Z" fill="#92b6ff" fill-opacity=".696" p-id="69685"></path><path d="M639.091478 431.015183m14.862592 0l200.644999 0q14.862593 0 14.862592 14.862592l0 89.175555q0 14.862593-14.862592 14.862593l-200.644999 0q-14.862593 0-14.862592-14.862593l0-89.175555q0-14.862593 14.862592-14.862592Z" fill="#92b6ff" fill-opacity=".696" p-id="69686"></path><path d="M639.091478 616.797589m14.862592 0l200.644999 0q14.862593 0 14.862592 14.862592l0 89.175555q0 14.862593-14.862592 14.862593l-200.644999 0q-14.862593 0-14.862592-14.862593l0-89.175555q0-14.862593 14.862592-14.862592Z" fill="#92b6ff" fill-opacity=".696" p-id="69687"></path><path d="M639.091478 802.579995m14.862592 0l200.644999 0q14.862593 0 14.862592 14.862593l0 89.175555q0 14.862593-14.862592 14.862592l-200.644999 0q-14.862593 0-14.862592-14.862592l0-89.175555q0-14.862593 14.862592-14.862593Z" fill="#92b6ff" fill-opacity=".696" p-id="69688"></path><path d="M936.343328 431.015183m14.862592 0l200.644999 0q14.862593 0 14.862592 14.862592l0 89.175555q0 14.862593-14.862592 14.862593l-200.644999 0q-14.862593 0-14.862592-14.862593l0-89.175555q0-14.862593 14.862592-14.862592Z" fill="#92b6ff" fill-opacity=".696" p-id="69689"></path><path d="M936.343328 616.797589m14.862592 0l200.644999 0q14.862593 0 14.862592 14.862592l0 89.175555q0 14.862593-14.862592 14.862593l-200.644999 0q-14.862593 0-14.862592-14.862593l0-89.175555q0-14.862593 14.862592-14.862592Z" fill="#92b6ff" p-id="69690"></path><path d="M936.343328 802.579995m14.862592 0l200.644999 0q14.862593 0 14.862592 14.862593l0 89.175555q0 14.862593-14.862592 14.862592l-200.644999 0q-14.862593 0-14.862592-14.862592l0-89.175555q0-14.862593 14.862592-14.862593Z" fill="#92b6ff" fill-opacity=".696" p-id="69691"></path><path d="M66.881666 178.35111m14.862593 0l1070.10666 0q14.862593 0 14.862592 14.862593l0 156.057221q0 14.862593-14.862592 14.862592l-1070.10666 0q-14.862593 0-14.862593-14.862592l0-156.057221q0-14.862593 14.862593-14.862593Z" fill="#92b6ff" fill-opacity=".179" p-id="69692"></path></svg>