<?xml version="1.0" standalone="no"?><!DOCTYPE svg PUBLIC "-//W3C//DTD SVG 1.1//EN" "http://www.w3.org/Graphics/SVG/1.1/DTD/svg11.dtd"><svg t="1673457860460" class="icon" viewBox="0 0 1024 1024" version="1.1" xmlns="http://www.w3.org/2000/svg" p-id="4235" xmlns:xlink="http://www.w3.org/1999/xlink" width="200" height="200"><path d="M512.96 1024.064C352 1024.064 64 800 64 576V240a96 96 0 0 1 96-96C192 144 245.312 128 320 96A1730.688 1730.688 0 0 0 480.832 18.048a64 64 0 0 1 62.336 0C589.76 44.032 643.392 70.016 704 96c74.688 32 128 48 160 48a96 96 0 0 1 96 96V576c0 224-256 448.064-448 448.064h0.96zM688.256 160A2777.152 2777.152 0 0 1 539.52 93.184a64 64 0 0 0-55.104 0c-63.36 30.336-112.896 52.608-148.48 66.816C256 192 167.04 208.512 128 211.456V576c0 192 258.816 384 384 384 125.184 0 384-192 384-384l-4.096-364.544C853.376 208.64 768 192 688.256 160z m-211.2 487.104a34.56 34.56 0 0 1-48.768 0L324.928 544.832a33.92 33.92 0 0 1 0-48.32 34.56 34.56 0 0 1 48.704 0l79.04 78.272 199.68-197.76a34.432 34.432 0 0 1 48.64 0 33.792 33.792 0 0 1 0 48.32l-224 221.888v-0.128z" fill="#39BE52" p-id="4236"></path></svg>