<?xml version="1.0" standalone="no"?><!DOCTYPE svg PUBLIC "-//W3C//DTD SVG 1.1//EN" "http://www.w3.org/Graphics/SVG/1.1/DTD/svg11.dtd"><svg t="1700975479566" class="icon" viewBox="0 0 1024 1024" version="1.1" xmlns="http://www.w3.org/2000/svg" p-id="5815" xmlns:xlink="http://www.w3.org/1999/xlink" width="200" height="200"><path d="M960 938.666667H64c-36.266667 0-64-27.733333-64-64V149.333333c0-36.266667 27.733333-64 64-64h315.733333c17.066667 0 34.133333 6.4 44.8 19.2l68.266667 68.266667c12.8 12.8 27.733333 19.2 44.8 19.2H960c36.266667 0 64 27.733333 64 64v618.666667c0 36.266667-27.733333 64-64 64z m21.333333-682.666667c0-12.8-8.533333-21.333333-21.333333-21.333333H537.6c-27.733333 0-55.466667-10.666667-74.666667-32l-68.266666-68.266667c-4.266667-4.266667-10.666667-6.4-14.933334-6.4H64c-12.8 0-21.333333 8.533333-21.333333 21.333333v725.333334c0 12.8 8.533333 21.333333 21.333333 21.333333h896c12.8 0 21.333333-8.533333 21.333333-21.333333V256zM539.733333 776.533333c-8.533333 8.533333-19.2 12.8-32 12.8-10.666667 0-23.466667-4.266667-32-12.8l-179.2-192c-25.6-27.733333-6.4-70.4 32-70.4H426.666667v-128c0-23.466667 19.2-42.666667 42.666666-42.666666h85.333334c23.466667 0 42.666667 19.2 42.666666 42.666666v128h89.6c36.266667 0 55.466667 44.8 32 70.4l-179.2 192zM554.666667 554.666667v-170.666667h-85.333334v170.666667h-138.666666l179.2 192 179.2-192H554.666667z" fill="#8fb4fd" p-id="5816"></path></svg>