<?xml version="1.0" standalone="no"?><!DOCTYPE svg PUBLIC "-//W3C//DTD SVG 1.1//EN"
        "http://www.w3.org/Graphics/SVG/1.1/DTD/svg11.dtd">
<svg t="1673458275306" class="icon" viewBox="0 0 1024 1024" version="1.1" xmlns="http://www.w3.org/2000/svg" p-id="8673"
     xmlns:xlink="http://www.w3.org/1999/xlink" width="200" height="200">
    <path d="M491.70963 123.638519c-214.471111 0-388.361481 173.89037-388.361481 388.361481s173.89037 388.361481 388.361481 388.361481c214.471111 0 388.361481-173.89037 388.361481-388.361481S706.275556 123.638519 491.70963 123.638519zM491.70963 866.607407C301.511111 866.607407 146.204444 716.8 137.576296 528.687407c-9.860741-212.48 158.435556-380.681481 370.820741-370.820741 188.112593 8.722963 337.92 163.934815 337.92 354.228148C846.317037 707.792593 687.597037 866.607407 491.70963 866.607407z"
          fill="#ED323D" p-id="8674"></path>
    <path d="M652.231111 351.478519c-6.257778-6.257778-16.497778-6.257778-22.755556 0L491.70963 489.244444 354.038519 351.478519c-6.257778-6.257778-16.497778-6.257778-22.755556 0-6.257778 6.257778-6.257778 16.497778 0 22.755556L468.954074 512 331.282963 649.671111c-6.257778 6.257778-6.257778 16.497778 0 22.755556 6.257778 6.257778 16.497778 6.257778 22.755556 0L491.70963 534.755556l137.671111 137.671111c6.257778 6.257778 16.497778 6.257778 22.755556 0 6.257778-6.257778 6.257778-16.497778 0-22.755556L514.56 512l137.671111-137.671111C658.583704 367.976296 658.583704 357.831111 652.231111 351.478519z"
          fill="#ED323D" p-id="8675"></path>
</svg>
