<?xml version="1.0" standalone="no"?><!DOCTYPE svg PUBLIC "-//W3C//DTD SVG 1.1//EN" "http://www.w3.org/Graphics/SVG/1.1/DTD/svg11.dtd"><svg t="1701395397952" class="icon" viewBox="0 0 1177 1024" version="1.1" xmlns="http://www.w3.org/2000/svg" p-id="17970" xmlns:xlink="http://www.w3.org/1999/xlink" width="229.8828125" height="200"><path d="M525.987497 177.428124l-29.05502-7.782138-22.885627 19.55774-1.638345-30.130183-25.624735-15.871464 27.928657-10.854034 7.090961-29.33661 19.071356 23.551206 29.95099-2.406319-16.409047 25.394343 11.57081 27.903058z m132.091542-17.48421l-21.682468-5.811004-17.074624 14.668305-1.20316-22.604037-19.199352-11.8524 21.04249-8.063728 5.273422-21.93846 14.079525 17.586607 22.322447-1.638345-12.210788 18.892163 8.652508 20.7353z m-268.790929 69.706447l-21.708067-5.811004-17.074624 14.668305-1.203159-22.604037-19.199352-11.775602 21.04249-8.063728 5.273422-21.93846 14.053925 17.586607 22.348046-1.663944-12.236387 18.917761 8.703706 20.684102z m304.552922 602.117279l-21.554473 21.016891-29.439006-6.066996 13.132357 27.083886-14.770702 26.315912 29.694998-4.223857 20.223317 22.322446 5.273422-29.746196 27.339878-12.543577-26.546304-14.156322-3.327888-30.002187z m124.232607-49.047945l-16.204253 15.743469-21.964059-4.505448 9.855667 20.351313-11.007628 19.788132 22.22005-3.302288 15.10349 16.639438 3.967866-22.194451 20.376913-9.394883-19.86493-10.572443-2.483116-22.52724z m-268.816527 69.808844l-16.178654 15.71787-21.964059-4.403052 9.881266 20.351313-11.058826 19.711335 22.22005-3.174293 15.10349 16.639439 3.967866-22.194451 20.376912-9.394883-19.864929-10.572443-2.483116-22.680835zM251.846349 383.117182a367.603593 367.603593 0 0 1 66.250564-110.51147l-9.983663-14.130724a382.886278 382.886278 0 0 0-76.003835 129.78762l19.711335-5.119827z m102.908527 404.491948l-19.711335 5.171026a377.945644 377.945644 0 0 0 135.521826 79.434119l1.843138-17.177021a365.222874 365.222874 0 0 1-117.653629-67.428124zM821.247932 235.333369l19.711335-5.145426a378.432028 378.432028 0 0 0-138.158538-79.587714l-1.843137 17.177021a364.634094 364.634094 0 0 1 120.29034 67.581719z m104.777264 403.954367a364.890085 364.890085 0 0 1-77.232594 123.490232l9.855668 14.130723a380.812748 380.812748 0 0 0 87.08826-142.766381l-19.711334 5.171025z" fill="#8fb4fd" p-id="17971"></path><path d="M1055.07044 605.752868c-34.96842 174.202121-165.242423 322.190726-347.55947 369.446731-182.317047 47.230406-367.526796-18.636171-481.903735-154.132398l-35.736394 9.241288c121.339905 153.46682 325.057829 229.496255 525.93425 177.299616 200.850821-52.222237 342.695634-217.848648 374.899347-411.122124l-35.633998 9.266887zM122.545113 416.703248C157.923119 243.269102 288.043527 95.997272 469.720596 48.818064c181.677068-47.179208 366.426033 18.38018 480.854171 152.929239l35.761993-9.241288C865.124851 39.832768 661.765314-35.659085 461.426476 16.435157 261.138835 68.5038 119.524415 233.490232 86.808719 426.072532l35.736394-9.369284z" fill="#8fb4fd" p-id="17972"></path><path d="M1045.752355 143.867656L12.520026 412.069805a16.562641 16.562641 0 0 0-11.954796 20.351313l111.10025 432.523002a16.921029 16.921029 0 0 0 20.223318 12.108391l1033.206729-268.202148a16.639438 16.639438 0 0 0 11.954796-20.351313l-111.074651-432.625399a16.690637 16.690637 0 0 0-20.223317-12.031594z m89.238588 422.53934a14.51471 14.51471 0 0 1-10.36765 17.586606L155.158412 835.684308a14.284318 14.284318 0 0 1-17.48421-10.444448L42.62461 454.769164a14.437913 14.437913 0 0 1 10.239655-17.561008l969.618475-251.716304a14.361115 14.361115 0 0 1 17.48421 10.316451l95.023993 370.598693z" fill="#8fb4fd" p-id="17973"></path><path d="M220.461808 498.978871a221.970109 221.970109 0 0 0-26.469506-11.980395 266.742997 266.742997 0 0 0-28.363843-8.703706l11.366016-27.288679c8.857301 2.38072 17.996193 5.04303 27.391076 7.961331 9.394883 2.918302 18.738568 5.887801 28.056653 8.959697l-11.980396 31.051752z m168.391117 131.400366l-47.307203-176.557241-72.701547 19.455343 48.61276 181.395478-28.210248 7.551745c-1.17756-8.447715-2.9695-18.07299-5.375819-28.978222-2.38072-10.879633-4.838237-21.016891-7.346952-30.411774l-25.931925-96.815932c-2.585513-9.650874-5.478215-19.455343-8.703706-29.464606-3.199892-10.009262-6.015797-18.533774-8.447715-25.573537a119.803957 119.803957 0 0 0 10.700439-0.87037c3.711875-0.460784 7.98693-1.151961 12.799568-2.047931 4.787038-0.870371 10.342051-2.099129 16.690637-3.660677a1352.146365 1352.146365 0 0 0 46.539229-12.466779c6.655775-1.919935 12.389982-3.737474 17.228219-5.427017a214.82795 214.82795 0 0 0 24.011989-9.804469c0.537582 3.020698 1.279957 6.732573 2.201526 11.135624 0.89597 4.377452 1.919935 9.164491 3.020698 14.284318a633.322625 633.322625 0 0 0 7.449349 30.795761l25.445541 94.972795c2.790306 10.36765 5.836603 20.479309 9.138891 30.334976 3.302289 9.855667 6.22059 18.021792 8.754905 24.498373l-28.568636 7.654142zM238.099613 594.43805a207.864985 207.864985 0 0 0-28.74783-9.394883 271.171648 271.171648 0 0 0-31.486937-6.271789l9.394883-33.125282c10.162857 2.303922 20.607305 4.73584 31.384541 7.295754 10.751637 2.559914 20.402511 4.940633 28.927023 7.167758L238.099613 594.43805z m199.929252 37.067549a568.556811 568.556811 0 0 0-4.787038-29.131817 324.085062 324.085062 0 0 0-3.302289-15.205887 571.295919 571.295919 0 0 0-3.481482-13.772335l-24.754365-92.361683c-1.17756-4.45425-2.559914-9.062094-4.095861-13.823533-1.535948-4.73584-3.148694-9.47168-4.812638-14.207521a386.290963 386.290963 0 0 0-4.966232-13.362749 228.344293 228.344293 0 0 0-4.403052-10.546844c5.273422-0.102397 10.495646-0.844771 15.692271-2.227125 5.196625-1.382353 10.08606-2.9695 14.642706-4.710241 2.329521-1.17756 3.814271-1.100763 4.42865 0.204793 0.614379 1.279957 0.076797 3.225491-1.638345 5.785405-0.89597 1.587146-0.563181 5.32462 1.023966 11.26362l33.995652 126.843719c2.201526 8.166124 4.991832 17.612206 8.396517 28.363843 3.404685 10.751637 6.604577 20.223317 9.599676 28.415041l-31.512536 8.447715z m27.211882-254.557809a9.446081 9.446081 0 0 0-1.868737 4.863836 23.295214 23.295214 0 0 0 1.049565 6.886167l72.343158 270.019687c2.047931 7.679741 3.327888 13.823533 3.763073 18.456977a18.815365 18.815365 0 0 1-3.327888 12.825168c-2.66231 3.891069-7.423749 7.833336-14.335516 11.775602-6.886168 3.993465-16.665038 8.985297-29.362209 15.052292a134.549059 134.549059 0 0 0-10.162857-17.151421 114.120948 114.120948 0 0 0-14.898697-17.074624c9.650874-1.535948 17.381813-3.148694 23.141619-4.838237 5.785405-1.663944 10.08606-3.686276 12.901965-6.015796a12.185189 12.185189 0 0 0 4.505448-9.164491 47.69119 47.69119 0 0 0-1.996733-14.181922l-57.956444-216.235902c-3.046297-11.366016-6.271788-22.22005-9.727672-32.562101a414.603607 414.603607 0 0 0-8.626909-24.114386 103.932492 103.932492 0 0 0 14.386715-1.894336c4.403051-0.89597 9.394883-2.252724 15.026693-4.019064 3.635077-1.228759 5.964599-0.998366 6.962965 0.716776 0.972767 1.740741 0.383987 3.942267-1.79194 6.655775z m-134.52346 119.547965c-1.075164 2.918302 1.023965 14.284318 6.348586 34.046851 4.044663 15.10349 7.474948 28.210248 10.342051 39.371471 2.867103 11.161223 5.196625 21.068089 6.988564 29.746196 1.79194 8.652508 3.199892 16.434645 4.249457 23.295214 1.023965 6.886168 1.79194 13.567542 2.201525 20.095322 0.767974 13.823533-1.126362 29.694998-5.734206 47.639992-4.607844 17.919395-13.874732 38.961885-27.800662 63.10187a77.949369 77.949369 0 0 0-17.893796-8.114926 87.958631 87.958631 0 0 0-18.252184-3.660676c10.111659-11.724404 18.175387-22.962425 24.165584-33.714062 5.990198-10.751637 10.418848-21.196085 13.234754-31.358942 2.841504-10.188456 4.351853-20.248917 4.42865-30.20698a202.642761 202.642761 0 0 0-2.047931-30.667765c-2.124728-12.953163-5.887801-29.183015-11.263619-48.663958a2061.447226 2061.447226 0 0 0-21.298482-71.421589c3.967866 0 8.831702-0.639978 14.591508-1.919936 5.759806-1.279957 10.162857-2.559914 13.260352-3.942267 2.559914-1.228759 4.326254-1.151961 5.222224 0.204793 0.870371 1.331155 0.639978 3.404685-0.767974 6.143793z m-63.741848 141.896011c0 3.967866 0.051198 7.935732 0.204793 11.8524 0.127996 3.942267 0.179194 8.191724 0.204793 12.671573 0 4.505448-0.025599 9.548478-0.127996 15.129089l-0.30719 19.583339c-0.051198 11.673206 0 23.832796 0.230393 36.504368 0.204793 12.671572 0.742375 25.496739 1.587146 38.5267a152.366058 152.366058 0 0 0-20.376912-7.065362 202.335571 202.335571 0 0 0-19.122555-3.814271c2.099129-9.036495 4.095862-19.327348 6.041396-30.846959 1.971133-11.519611 3.148694-24.88236 3.583879-40.113846 0.051198-3.711875 0.127996-8.114926 0.255992-13.183555a552.864541 552.864541 0 0 0-0.486384-31.486938c-0.255991-5.350219-0.614379-10.342051-1.075164-15.001093 4.45425 2.790306 8.959698 4.761439 13.516344 5.9134 4.556646 1.17756 9.855667 1.612746 15.871465 1.331155z m171.719004 69.655249c-12.287585-10.239654-23.602403-18.789766-33.918855-25.701532a196.089382 196.089382 0 0 0-32.101317-17.407413l14.642706-25.419942c10.649241 5.119827 22.066455 11.058827 34.226045 17.868197 12.15959 6.80937 23.474408 13.977128 33.970053 21.503274l-16.818632 29.183016zM758.581247 613.202216a190.969555 190.969555 0 0 0-8.01253 19.020158 73.981503 73.981503 0 0 0-3.327887 14.23312 89.852967 89.852967 0 0 0-16.869831-11.007628 131.477163 131.477163 0 0 0-17.535408-7.602944c3.609478-6.271788 5.759806-12.338784 6.425383-18.226585 0.691177-5.887801-0.076797-12.901965-2.252724-21.068089l-33.995653-126.843719a511.137949 511.137949 0 0 0-33.458071 10.162857l-7.218956 2.713509-9.036495-33.739661a367.142809 367.142809 0 0 0 38.321907-8.294121c7.935732-2.099129 14.668305-4.095862 20.248916-6.015796 5.606211-1.894336 10.930831-3.788672 15.973861-5.65741 0.30719 6.015797 1.203159 13.311551 2.713509 21.912861 1.510349 8.626909 3.379086 17.125822 5.63181 25.522339l28.517437 106.466806c4.14706-8.268521 7.577344-15.820266 10.239654-22.629636 2.687909-6.80937 5.452616-14.847499 8.268521-24.063188 3.327888 5.452616 7.090961 10.137258 11.314819 14.053926 4.223857 3.891069 8.780504 7.039762 13.669938 9.47168l-29.6182 61.591521z m-71.344792-215.826315c-7.449349-8.089327-15.71787-16.127456-24.754365-24.191184a473.48162 473.48162 0 0 0-29.515804-24.063188l24.421576-26.05992c8.754905 6.937366 17.919395 14.361115 27.442274 22.271248 9.548478 7.935732 18.175387 15.461878 25.957524 22.680835l-23.551205 29.362209z m215.339932-83.55558a122.696659 122.696659 0 0 0-13.92593-17.919396 117.244043 117.244043 0 0 0-16.332249-14.898697l25.727132-21.221684c6.22059 4.428651 12.13399 9.47168 17.7658 15.103491 5.63181 5.657409 10.36765 10.751637 14.23312 15.282684l-27.467873 23.653602z m-53.655789 225.47719c6.937366-3.711875 13.951529-7.526146 20.991291-11.391616 7.039762-3.86547 14.309917-8.140525 21.810464-12.799568 0.844771 6.143793 1.638345 11.340417 2.406319 15.666671 0.767974 4.300655 2.150327 9.215689 4.14706 14.770702-17.663404 8.191724-34.405239 16.972227-50.174306 26.36711a346.100319 346.100319 0 0 0-44.132911 31.10295c-2.918302-6.911767-5.606211-13.004361-8.089327-18.303382a157.383488 157.383488 0 0 0-9.266887-16.793033l18.175386-7.858935c5.708607-2.457517 11.26362-4.940633 16.690637-7.423749l-24.959158-93.129657c-7.090961 2.175927-13.33715 4.095862-18.712968 5.811004-5.375819 1.715142-9.983663 3.763073-13.874732 6.118193L755.202161 438.795303c6.015797-0.28159 12.466779-1.151961 19.378546-2.611112 6.886168-1.459151 15.538676-3.583879 25.906325-6.348586 10.393249-2.790306 19.071356-5.299021 26.008723-7.577344 6.937366-2.252724 12.978762-4.73584 18.07299-7.42375l8.754904 32.638899c-7.39815 0.127996-16.639438 1.689543-27.775062 4.659043l23.372011 87.165058z m-13.439547-193.990253l-15.10349-43.825721c-4.14706-12.031594-7.474948-22.194451-9.983663-30.539769 2.918302 0 6.194991-0.332789 9.855668-1.023966 3.660676-0.742375 7.295754-1.510349 10.905231-2.35512 3.609478-0.819172 7.014163-1.79194 10.162857-2.918302a61.437926 61.437926 0 0 0 7.858935-3.302288c3.763073-1.79194 6.066995-2.022332 6.962965-0.665578 0.89597 1.356754-0.051198 4.249457-2.815905 8.703706-2.047931 3.199892-1.843138 10.751637 0.691177 22.680835 2.534314 11.903598 6.655775 26.623101 12.44118 44.15851 18.405779-5.452616 34.098049-10.444447 47.051212-14.975495a490.991429 490.991429 0 0 0 31.563735-12.031594l10.188456 35.019618a245.956499 245.956499 0 0 0-32.638899 6.553379 1346.514555 1346.514555 0 0 0-46.769621 13.132357c9.47168 27.391076 18.789766 51.300669 27.954257 71.626382 9.138892 20.325714 17.919395 36.273976 26.315911 47.793587 7.551745 10.444447 14.20752 19.122555 19.916128 26.08552 5.683008 6.962965 10.598042 12.389982 14.693904 16.332249 4.095862 3.942267 7.526146 6.604577 10.290853 7.98693 2.764707 1.382353 4.966232 1.715142 6.655775 0.998366 2.559914-1.228759 4.14706-5.171025 4.76144-11.8268 0.614379-6.655775-0.435185-17.970593-3.123095-33.944455 7.065362 6.604577 13.439546 11.366016 19.148154 14.335516 5.683008 2.995099 11.468413 5.555013 17.356214 7.679741-0.332789 17.586606-1.535948 31.358942-3.635077 41.342605-2.099129 9.983663-5.04303 17.049025-8.831702 21.247283a16.127456 16.127456 0 0 1-13.772335 5.683008c-5.401418-0.409586-11.622008-2.329521-18.636171-5.759806-12.773969-6.118194-25.496739-15.820266-38.219511-29.106217-12.697171-13.311551-24.575171-28.671032-35.582799-46.104044a306.65205 306.65205 0 0 1-11.519611-20.581706c-4.351853-8.498913-9.010896-18.175387-13.92593-29.055019-4.889435-10.879633-9.932465-22.783231-15.129089-35.710795a1280.161595 1280.161595 0 0 1-15.385081-40.395436l-28.363843 8.396516c-37.502734 11.366016-64.58662 20.607305-81.226058 27.723865l-10.188456-35.045218c8.985297-1.075164 20.351313-3.404685 34.123648-6.937366 13.746736-3.583879 30.206981-8.191724 49.355134-13.823533l26.623102-7.551745z" fill="#8fb4fd" p-id="17974"></path></svg>