<?xml version="1.0" standalone="no"?><!DOCTYPE svg PUBLIC "-//W3C//DTD SVG 1.1//EN" "http://www.w3.org/Graphics/SVG/1.1/DTD/svg11.dtd"><svg t="1701395475024" class="icon" viewBox="0 0 1024 1024" version="1.1" xmlns="http://www.w3.org/2000/svg" p-id="19197" xmlns:xlink="http://www.w3.org/1999/xlink" width="200" height="200"><path d="M752.941176 826.307765v-60.235294h144.564706c17.588706 0 36.141176-21.865412 36.141177-53.187765V372.736c0-31.322353-18.552471-53.127529-36.141177-53.127529H126.494118c-17.588706 0-36.141176 21.805176-36.141177 53.127529v340.148706c0 31.322353 18.552471 53.187765 36.141177 53.187765H271.058824v60.235294H126.494118c-53.248 0-96.376471-50.778353-96.376471-113.423059V372.736c0-62.644706 43.128471-113.362824 96.376471-113.362824h771.011764c53.248 0 96.376471 50.778353 96.376471 113.362824v340.148706c0 62.644706-43.128471 113.423059-96.376471 113.423059H752.941176z m0 0v-60.235294h144.564706c17.588706 0 36.141176-21.865412 36.141177-53.187765V372.736c0-31.322353-18.552471-53.127529-36.141177-53.127529H126.494118c-17.588706 0-36.141176 21.805176-36.141177 53.127529v340.148706c0 31.322353 18.552471 53.187765 36.141177 53.187765H271.058824v60.235294H126.494118c-53.248 0-96.376471-50.778353-96.376471-113.423059V372.736c0-62.644706 43.128471-113.362824 96.376471-113.362824h771.011764c53.248 0 96.376471 50.778353 96.376471 113.362824v340.148706c0 62.644706-43.128471 113.423059-96.376471 113.423059H752.941176z" fill="#8fb4fd" p-id="19198"></path><path d="M304.549647 845.763765a60.235294 60.235294 0 0 0 60.235294 60.235294h294.430118a60.235294 60.235294 0 0 0 60.235294-60.235294v-271.058824H304.549647v271.058824z m-60.235294-331.294118h535.371294v331.294118a120.470588 120.470588 0 0 1-120.470588 120.470588H364.784941a120.470588 120.470588 0 0 1-120.470588-120.470588v-331.294118z" fill="#8fb4fd" p-id="19199"></path><path d="M197.451294 572.958118a30.117647 30.117647 0 1 1 0-60.235294h629.097412a30.117647 30.117647 0 1 1 0 60.235294H197.451294zM404.901647 771.373176a30.117647 30.117647 0 0 1 0-60.235294h214.196706a30.117647 30.117647 0 1 1 0 60.235294H404.901647zM304.549647 255.819294V124.747294a60.235294 60.235294 0 0 1 60.235294-60.235294h294.430118a60.235294 60.235294 0 0 1 60.235294 60.235294v131.072H304.549647z m-60.235294 60.235294h535.371294V124.747294a120.470588 120.470588 0 0 0-120.470588-120.470588H364.784941a120.470588 120.470588 0 0 0-120.470588 120.470588v191.307294z" fill="#8fb4fd" p-id="19200"></path><path d="M404.901647 204.438588a30.117647 30.117647 0 0 1 0-60.235294h214.196706a30.117647 30.117647 0 1 1 0 60.235294H404.901647z" fill="#8fb4fd" p-id="19201"></path></svg>