<?xml version="1.0" standalone="no"?><!DOCTYPE svg PUBLIC "-//W3C//DTD SVG 1.1//EN" "http://www.w3.org/Graphics/SVG/1.1/DTD/svg11.dtd"><svg t="1701395056638" class="icon" viewBox="0 0 1024 1024" version="1.1" xmlns="http://www.w3.org/2000/svg" p-id="7516" xmlns:xlink="http://www.w3.org/1999/xlink" width="200" height="200"><path d="M158.896552 5.885057h706.206896c65.006345 0 117.701149 52.694805 117.70115 117.70115v776.827586c0 65.006345-52.694805 117.701149-117.70115 117.70115H158.896552c-65.006345 0-117.701149-52.694805-117.70115-117.70115v-776.827586C41.195402 58.579862 93.890207 5.885057 158.896552 5.885057z" fill="#555555" p-id="7517"></path><path d="M158.896552 64.735632h706.206896a58.850575 58.850575 0 0 1 58.850575 58.850575v776.827586a58.850575 58.850575 0 0 1-58.850575 58.850575H158.896552a58.850575 58.850575 0 0 1-58.850575-58.850575v-776.827586a58.850575 58.850575 0 0 1 58.850575-58.850575z" fill="#FFFFFF" p-id="7518"></path><path d="M676.781609 570.850575a105.931034 105.931034 0 1 1-0.01177 211.873839A105.931034 105.931034 0 0 1 676.781609 570.850575z m-40.100781-317.793104a69.914483 69.914483 0 0 1 69.914482 69.914483v228.669793a126.95246 126.95246 0 0 0-32.203034-4.13131c-59.874575 0-110.285977 41.713287-124.586667 98.139218H497.758161a16.36046 16.36046 0 0 0-1.577195 32.650299l1.577195 0.082391h47.986759c0 39.076782 16.854805 74.151724 43.549425 98.150988H358.282299a69.914483 69.914483 0 0 1-69.914483-69.914482V322.971954a69.914483 69.914483 0 0 1 69.914483-69.914483h278.398529z m-210.214253 374.76046l-1.153472 1.024-36.828689 36.81692-20.374069-20.38584a12.064368 12.064368 0 0 0-18.067127 15.924966l1.00046 1.141701 29.213425 29.201655c4.343172 4.354943 11.181609 4.684506 15.924966 1.00046l1.129931-1.00046 45.350253-45.350253a12.26446 12.26446 0 0 0-16.195678-18.361379z m0-130.871908l-1.153472 1.024-36.828689 36.81692-20.374069-20.374069a12.064368 12.064368 0 0 0-18.067127 15.924965l1.00046 1.129931 29.213425 29.213425c4.343172 4.354943 11.181609 4.672736 15.924966 1.00046l1.129931-1.00046 45.350253-45.362023a12.26446 12.26446 0 0 0-16.195678-18.361379z m167.253333 17.843494H497.758161a16.36046 16.36046 0 0 0-1.577195 32.650299l1.577195 0.070621h95.973517a16.36046 16.36046 0 0 0 0-32.72092z m-167.253333-148.703632l-1.153472 1.024-36.828689 36.81692-20.374069-20.385839a12.064368 12.064368 0 0 0-18.067127 15.924965l1.00046 1.129931 29.213425 29.213425c4.343172 4.354943 11.181609 4.684506 15.924966 1.00046l1.129931-1.00046 45.350253-45.350253a12.26446 12.26446 0 0 0-16.195678-18.373149z m199.432827 17.843494H497.758161a16.36046 16.36046 0 0 0-1.577195 32.638529l1.577195 0.070621h128.141241a16.36046 16.36046 0 1 0 0-32.72092z" fill="#01A0FA" p-id="7519"></path><path d="M689.046069 735.820506c-6.826667 0-15.889655-0.706207-27.188966-2.118621l2.118621 10.710805c7.615264 0.706207 16.160368 1.05931 25.658851 1.05931h4.825747c6.12046-0.082391 10.675494-1.494805 13.653333-4.237241 3.06023-2.671816 5.296552-7.062069 6.708966-13.182529 0.553195-2.589425 1.294713-6.791356 2.236322-12.594023 0.941609-5.885057 1.530115-10.157609 1.765517-12.829425h-60.733793l2.589425-12.358621h70.032184v-9.416092h-60.38069c6.909057-4.237241 13.26492-8.627494 19.067586-13.182529h49.905288v-9.886896h-38.135173a176.551724 176.551724 0 0 0 26.718161-30.366897l-9.416092-6.473563a168.854069 168.854069 0 0 1-34.251034 36.84046h-12.947127v-14.830345h28.012874v-10.004598h-28.012874v-15.536552h-12.240919v15.536552h-32.132414v10.004598h32.132414v14.830345h-45.432644v9.886896h57.085058c-16.866575 11.29931-36.922851 20.915494-60.145288 28.836782l4.354943 11.063908a407.752092 407.752092 0 0 0 32.838621-14.124138l-3.295633 18.714483h61.204598c-0.388414 4.001839-1.294713 8.392092-2.707126 13.182528-1.259402 4.001839-2.824828 6.744276-4.708046 8.239081-1.965609 1.494805-5.025839 2.236322-9.18069 2.236322z" fill="#FFFFFF" p-id="7520"></path></svg>