<?xml version="1.0" standalone="no"?><!DOCTYPE svg PUBLIC "-//W3C//DTD SVG 1.1//EN" "http://www.w3.org/Graphics/SVG/1.1/DTD/svg11.dtd"><svg t="1693048377319" class="icon" viewBox="0 0 1024 1024" version="1.1" xmlns="http://www.w3.org/2000/svg" p-id="8753" xmlns:xlink="http://www.w3.org/1999/xlink" width="200" height="200"><path d="M32.256 907.264l566.272 99.84V47.616L32.256 150.016v757.248z m138.24-568.832l82.944-4.608 55.808 104.448 61.44-110.592 85.504-5.12-101.888 194.56 104.96 198.656-91.648-5.12L304.64 578.56l-60.928 125.44-81.408-5.632 96.256-179.712-88.064-180.224z m803.328-176.128h-41.472v153.088h-51.2l-13.824 31.232h65.024V440.32h-107.008l-4.608 11.264c-3.584 7.68-8.192 14.336-14.336 19.968h125.952v88.576H778.24V485.376c-3.584 0.512-7.168 1.024-11.264 1.024-6.656 0-13.312-1.024-19.968-3.584v77.312h-94.72v35.84h94.72v89.6h-94.72v35.328h94.72v90.112h-94.72v65.536H972.8c10.752 0 18.944-8.192 18.944-18.944V182.272c0-10.24-7.68-18.944-17.92-19.968z m-41.472 648.704H778.24v-90.112h154.112v90.112z m0-125.44H778.24v-89.6h154.112v89.6z m-219.648-233.984l-4.608-11.264h-55.808v31.232H727.04c-6.144-5.632-11.264-12.288-14.336-19.968z" fill="#343399" p-id="8754"></path><path d="M777.216 432.128l102.912-231.424c2.56-5.632 0-12.288-5.632-14.848-1.536-0.512-3.072-1.024-4.608-1.024h-44.032c-6.144 0-11.264-5.12-11.264-11.264V58.88c0-6.144-5.12-11.264-11.264-11.264h-72.192c-6.144 0-11.264 5.12-11.264 11.264v114.688c0 6.144-5.12 11.264-11.264 11.264h-44.544c-6.144 0-11.264 5.12-11.264 11.264 0 1.536 0.512 3.072 1.024 4.608l102.912 231.424c2.56 5.632 9.216 8.192 14.848 5.632 2.048-1.024 4.096-3.072 5.632-5.632z" fill="#F59D0D" p-id="8755"></path></svg>