<?xml version="1.0" standalone="no"?><!DOCTYPE svg PUBLIC "-//W3C//DTD SVG 1.1//EN" "http://www.w3.org/Graphics/SVG/1.1/DTD/svg11.dtd"><svg t="1714364438127" class="icon" viewBox="0 0 1029 1024" version="1.1" xmlns="http://www.w3.org/2000/svg" p-id="5494" xmlns:xlink="http://www.w3.org/1999/xlink" width="128.625" height="128"><path d="M769.053498 516.213992c-143.27572 0-259.160494-115.884774-259.160494-259.160494C509.893004 115.884774 625.777778 0 769.053498 0c143.27572 0 259.160494 115.884774 259.160494 259.160494C1026.106996 400.329218 910.222222 516.213992 769.053498 516.213992M707.950617 212.806584c-6.320988 6.320988-29.497942 29.497942-29.497942 37.925926 0 4.213992 4.213992 6.320988 6.320988 6.320988 10.534979 0 35.81893-46.353909 54.781893-46.353909 4.213992 0 8.427984 4.213992 6.320988 14.748971l-37.925926 92.707819c-4.213992 8.427984-21.069959 52.674897-21.069959 77.958848 0 21.069959 12.641975 29.497942 31.604938 29.497942 52.674897 0 115.884774-65.316872 115.884774-82.17284 0-4.213992-4.213992-8.427984-6.320988-8.427984-8.427984 0-35.81893 44.246914-52.674897 44.246914-4.213992 0-6.320988-4.213992-6.320988-8.427984 0-8.427984 6.320988-21.069959 8.427984-29.497942l37.925926-103.242798c18.962963-50.567901-6.320988-65.316872-27.390947-65.316872C756.411523 176.987654 729.020576 193.843621 707.950617 212.806584M815.407407 80.065844c-23.176955 0-44.246914 18.962963-44.246914 42.139918 0 21.069959 14.748971 35.81893 35.81893 35.81893 23.176955 0 44.246914-18.962963 44.246914-42.139918C853.333333 94.814815 836.477366 80.065844 815.407407 80.065844M459.325103 372.938272c6.320988 0 14.748971-2.106996 21.069959-2.106996 4.213992 12.641975 10.534979 25.283951 16.855967 37.925926-12.641975 2.106996-25.283951 4.213992-37.925926 4.213992l0 145.382716 183.308642 0c0-6.320988-2.106996-12.641975-2.106996-18.962963 12.641975 6.320988 27.390947 10.534979 40.032922 14.748971 0 0 0 2.106996 0 2.106996l10.534979 0c25.283951 6.320988 50.567901 10.534979 77.958848 10.534979 37.925926 0 75.851852-8.427984 109.563786-21.069959 0 10.534979 2.106996 21.069959 2.106996 33.711934 0 244.411523-198.057613 438.255144-440.36214 442.469136l0 0c0 0-2.106996 0-2.106996 0 0 0-2.106996 0-2.106996 0l0 0C191.736626 1017.679012 0 825.942387 0 581.530864c0-244.411523 191.736626-438.255144 436.148148-442.469136l0 0c0 0 2.106996 0 2.106996 0 0 0 2.106996 0 2.106996 0l0 0c14.748971 0 29.497942 2.106996 42.139918 2.106996-4.213992 12.641975-8.427984 25.283951-12.641975 37.925926-4.213992 0-6.320988 0-10.534979 0l0 80.065844c0 0 0 0 0 2.106996 0 0 0 0 0 2.106996L459.325103 372.938272zM838.584362 600.493827l-158.024691 0c-2.106996 54.781893-16.855967 126.419753-44.246914 195.950617 40.032922 16.855967 73.744856 35.81893 101.135802 54.781893C798.55144 785.909465 834.37037 697.415638 838.584362 600.493827M710.057613 878.617284c-25.283951-18.962963-54.781893-35.81893-88.493827-50.567901-18.962963 50.567901-42.139918 96.921811-73.744856 136.954733C611.028807 952.36214 665.8107 920.757202 710.057613 878.617284M459.325103 983.967078c12.641975 0 23.176955-2.106996 37.925926-4.213992 35.81893-48.460905 67.423868-105.349794 90.600823-164.345679-44.246914-14.748971-88.493827-25.283951-128.526749-27.390947L459.325103 983.967078zM459.325103 747.983539c44.246914 2.106996 92.707819 14.748971 143.27572 35.81893 23.176955-63.209877 37.925926-124.312757 40.032922-183.308642l-183.308642 0L459.325103 747.983539zM330.798354 967.111111c-29.497942-40.032922-54.781893-86.386831-73.744856-136.954733-33.711934 14.748971-63.209877 31.604938-88.493827 50.567901C214.91358 920.757202 269.695473 952.36214 330.798354 967.111111M141.168724 851.226337c27.390947-18.962963 63.209877-37.925926 101.135802-54.781893-27.390947-69.530864-42.139918-141.168724-44.246914-195.950617L42.139918 600.493827C46.353909 697.415638 82.17284 785.909465 141.168724 851.226337M42.139918 558.353909l158.024691 0c2.106996-56.888889 18.962963-124.312757 44.246914-193.843621-40.032922-16.855967-73.744856-35.81893-101.135802-54.781893C82.17284 375.045267 46.353909 459.325103 42.139918 558.353909M168.559671 282.337449c23.176955 16.855967 52.674897 33.711934 86.386831 48.460905 18.962963-50.567901 46.353909-96.921811 73.744856-136.954733C269.695473 208.592593 214.91358 240.197531 168.559671 282.337449M417.185185 176.987654c-12.641975 0-21.069959 2.106996-33.711934 4.213992-35.81893 48.460905-67.423868 103.242798-92.707819 162.238683 42.139918 14.748971 84.279835 25.283951 126.419753 29.497942L417.185185 176.987654zM417.185185 412.971193c-44.246914-2.106996-88.493827-14.748971-139.061728-35.81893-23.176955 61.102881-37.925926 120.098765-40.032922 181.201646l179.09465 0L417.185185 412.971193zM417.185185 600.493827l-179.09465 0c2.106996 58.995885 16.855967 122.205761 40.032922 183.308642 50.567901-21.069959 94.814815-33.711934 139.061728-35.81893L417.185185 600.493827zM417.185185 788.016461c-42.139918 2.106996-82.17284 12.641975-126.419753 27.390947 23.176955 58.995885 54.781893 115.884774 90.600823 164.345679 14.748971 2.106996 21.069959 4.213992 33.711934 4.213992L415.078189 788.016461z" fill="#8fb4fd" p-id="5495"></path></svg>