<?xml version="1.0" standalone="no"?><!DOCTYPE svg PUBLIC "-//W3C//DTD SVG 1.1//EN" "http://www.w3.org/Graphics/SVG/1.1/DTD/svg11.dtd"><svg t="1704721786310" class="icon" viewBox="0 0 1024 1024" version="1.1" xmlns="http://www.w3.org/2000/svg" p-id="5615" xmlns:xlink="http://www.w3.org/1999/xlink" width="200" height="200"><path d="M893.44 103.253333A692.48 692.48 0 0 0 664.32 0H359.68a692.48 692.48 0 0 0-229.12 102.4A332.373333 332.373333 0 0 0 0 341.333333v487.68a24.746667 24.746667 0 0 0 24.32 24.32H170.666667v146.346667a24.746667 24.746667 0 0 0 24.32 24.32h634.026666a24.746667 24.746667 0 0 0 24.32-24.32V853.333333h146.346667a24.746667 24.746667 0 0 0 24.32-24.32V341.333333a332.373333 332.373333 0 0 0-130.56-238.08zM631.466667 48.64a122.026667 122.026667 0 0 1-238.933334 0z m343.893333 756.053333H853.333333V341.333333a24.32 24.32 0 0 0-24.32-24.32 23.893333 23.893333 0 0 0-24.32 24.32v634.026667H219.306667V341.333333a23.893333 23.893333 0 0 0-24.32-24.32A24.32 24.32 0 0 0 170.666667 341.333333v463.36H48.64V341.333333a288.426667 288.426667 0 0 1 113.066667-200.533333 584.96 584.96 0 0 1 182.613333-85.333333 170.666667 170.666667 0 0 0 335.36 0 584.96 584.96 0 0 1 182.613333 85.333333A287.573333 287.573333 0 0 1 975.36 341.333333z" p-id="5616"></path><path d="M512 146.346667a122.026667 122.026667 0 0 0 119.466667-97.706667H392.533333A122.026667 122.026667 0 0 0 512 146.346667z" fill="#BFAD68" p-id="5617"></path><path d="M862.293333 140.8a584.96 584.96 0 0 0-182.613333-85.333333 170.666667 170.666667 0 0 1-335.36 0 584.96 584.96 0 0 0-182.613333 85.333333A288.426667 288.426667 0 0 0 48.64 341.333333v463.36H170.666667V341.333333a24.32 24.32 0 0 1 24.32-24.32 23.893333 23.893333 0 0 1 24.32 24.32v634.026667h585.386666V341.333333a23.893333 23.893333 0 0 1 24.32-24.32A24.32 24.32 0 0 1 853.333333 341.333333v463.36h122.026667V341.333333a287.573333 287.573333 0 0 0-113.066667-200.533333z" fill="#BFAD68" p-id="5618"></path><path d="M562.773333 358.826667A100.266667 100.266667 0 0 0 512 379.733333a102.826667 102.826667 0 0 0-51.626667-20.906666 107.52 107.52 0 0 0-88.746666 31.146666 111.786667 111.786667 0 0 0 3.413333 156.586667l106.666667 106.666667a42.666667 42.666667 0 0 0 60.586666 0l106.666667-106.24a112.213333 112.213333 0 0 0 3.413333-157.013334 108.373333 108.373333 0 0 0-89.6-31.146666z" p-id="5619"></path></svg>