<?xml version="1.0" standalone="no"?><!DOCTYPE svg PUBLIC "-//W3C//DTD SVG 1.1//EN" "http://www.w3.org/Graphics/SVG/1.1/DTD/svg11.dtd"><svg t="1710077839736" class="icon" viewBox="0 0 1024 1024" version="1.1" xmlns="http://www.w3.org/2000/svg" p-id="7519" xmlns:xlink="http://www.w3.org/1999/xlink" width="200" height="200"><path d="M512 1008.941176C289.129412 1008.941176 105.411765 825.223529 105.411765 602.352941S289.129412 195.764706 512 195.764706 918.588235 379.482353 918.588235 602.352941 734.870588 1008.941176 512 1008.941176z m0-752.941176C322.258824 256 165.647059 412.611765 165.647059 602.352941S322.258824 948.705882 512 948.705882 858.352941 792.094118 858.352941 602.352941 701.741176 256 512 256z" fill="#3373F2" p-id="7520"></path><path d="M445.741176 240.941176h-48.188235V120.470588c0-63.247059 51.2-114.447059 114.447059-114.447059 63.247059 0 114.447059 51.2 114.447059 114.447059v117.458824h-48.188235V120.470588c0-36.141176-30.117647-66.258824-66.258824-66.258823-36.141176 0-66.258824 30.117647-66.258824 66.258823v120.470588z" fill="#3373F2" p-id="7521"></path><path d="M436.705882 114.447059h150.588236v30.117647h-150.588236z" fill="#3373F2" p-id="7522"></path><path d="M527.058824 120.470588v120.470588h-30.117648V120.470588zM527.058824 391.529412v210.823529h-30.117648v-210.823529zM170.797176 234.706824l63.909648-63.87953 106.465882 106.465882-63.87953 63.87953zM746.706824 341.202824l-63.87953-63.909648 106.465882-106.465882 63.87953 63.87953zM496.941176 271.058824h30.117648v60.235294h-30.117648z" fill="#3373F2" p-id="7523"></path><path d="M496.941176 271.058824h30.117648v60.235294h-30.117648zM496.941176 873.411765h30.117648v60.235294h-30.117648zM240.941176 587.294118v30.117647H180.705882v-30.117647zM843.294118 587.294118v30.117647h-60.235294v-30.117647zM216.967529 450.800941l15.058824-26.081882 52.163765 30.117647-15.058824 26.081882zM739.809882 749.929412l15.058824-26.112 52.163765 30.117647-15.058824 26.081882zM362.827294 830.584471l26.081882 15.058823-30.117647 52.163765-26.081882-15.058824zM665.178353 306.868706l26.081882 15.058823-30.117647 52.163765-26.081882-15.058823z" fill="#3373F2" p-id="7524"></path><path d="M332.709647 321.927529l26.081882-15.058823 30.117647 52.163765-26.081882 15.058823zM635.060706 845.643294l26.081882-15.058823 30.117647 52.163764-26.081882 15.058824zM269.131294 723.787294l15.058824 26.081882-52.163765 30.117648-15.058824-26.081883zM791.973647 424.658824l15.058824 26.112-52.163765 30.117647-15.058824-26.081883z" fill="#3373F2" p-id="7525"></path><path d="M888.470588 1024h-361.411764c-33.129412 0-60.235294-27.105882-60.235295-60.235294v-180.705882c0-33.129412 27.105882-60.235294 60.235295-60.235295h361.411764c33.129412 0 60.235294 27.105882 60.235294 60.235295v180.705882c0 33.129412-27.105882 60.235294-60.235294 60.235294z" fill="#3373F2" p-id="7526"></path><path d="M518.023529 873.411765c0-51.2 27.105882-81.317647 69.270589-81.317647 39.152941 0 69.270588 30.117647 69.270588 81.317647s-27.105882 81.317647-69.270588 81.317647c-39.152941 0-69.270588-30.117647-69.270589-81.317647z m111.435295 0c0-36.141176-18.070588-60.235294-42.164706-60.235294-27.105882 0-42.164706 21.082353-42.164706 60.235294 0 36.141176 18.070588 60.235294 42.164706 60.235294 27.105882 0 42.164706-21.082353 42.164706-60.235294zM686.682353 798.117647h93.364706v21.082353h-69.270588v48.188235h57.223529v21.082353h-57.223529v66.258824h-24.094118v-156.611765zM807.152941 798.117647h93.364706v21.082353h-69.270588v48.188235h57.223529v21.082353h-57.223529v66.258824h-24.094118v-156.611765z" fill="#FFFFFF" p-id="7527"></path></svg>