<?xml version="1.0" standalone="no"?><!DOCTYPE svg PUBLIC "-//W3C//DTD SVG 1.1//EN" "http://www.w3.org/Graphics/SVG/1.1/DTD/svg11.dtd"><svg t="1689492101705" class="icon" viewBox="0 0 1024 1024" version="1.1" xmlns="http://www.w3.org/2000/svg" p-id="9530" xmlns:xlink="http://www.w3.org/1999/xlink" width="200" height="200"><path d="M98 98.85l827.99 0 0 618-827.99 0 0-618Z" fill="#01B0F1" p-id="9531"></path><path d="M907 99.85a18 18 0 0 1 18 18v580a18 18 0 0 1-18 18H117a18 18 0 0 1-18-18v-580a18 18 0 0 1 18-18h790m0-2H117a20.06 20.06 0 0 0-20 20v580a20.06 20.06 0 0 0 20 20h790a20.06 20.06 0 0 0 20-20v-580a20.06 20.06 0 0 0-20-20z" fill="#0E6EC5" p-id="9532"></path><path d="M897 127.85l0 560-770 0 0-560 770 0Z" fill="#FFF8B8" p-id="9533"></path><path d="M256.7 877.15l509.95 0 0 48-509.95 0 0-48Z" fill="#01B0F1" p-id="9534"></path><path d="M742.77 878.15A22.9 22.9 0 0 1 765.65 901v0.24a22.9 22.9 0 0 1-22.88 22.88H280.58a22.9 22.9 0 0 1-22.88-22.88V901a22.9 22.9 0 0 1 22.88-22.88h462.19m0-2H280.58A25 25 0 0 0 255.7 901v0.24a25 25 0 0 0 24.88 24.88h462.19a25 25 0 0 0 24.88-24.88V901a25 25 0 0 0-24.88-24.88z" fill="#0E6EC5" p-id="9535"></path><path d="M791.5 701.16m-130 0a130 130 0 1 0 260 0 130 130 0 1 0-260 0Z" fill="#0FCE9A" p-id="9536"></path><path d="M708.56 708.33H706v12.43a5.48 5.48 0 0 1-1 3.61 3.25 3.25 0 0 1-2.59 1.16 3.18 3.18 0 0 1-2.67-1.21 5.71 5.71 0 0 1-0.95-3.56V691a5.33 5.33 0 0 1 1-3.67 4.39 4.39 0 0 1 3.37-1.13H715a32.67 32.67 0 0 1 4.15 0.22 9.75 9.75 0 0 1 3.1 0.91 9 9 0 0 1 3 2.19 9.74 9.74 0 0 1 2 3.31 11.91 11.91 0 0 1 0.67 4 10.18 10.18 0 0 1-2.24 6.91 12.53 12.53 0 0 1-6.8 3.67 13.48 13.48 0 0 1 3.66 3.27 33.13 33.13 0 0 1 3.12 4.6 35.38 35.38 0 0 1 2.13 4.41 9.3 9.3 0 0 1 0.76 2.7 2.94 2.94 0 0 1-0.45 1.52 3.25 3.25 0 0 1-1.22 1.19 3.61 3.61 0 0 1-1.79 0.44 3.29 3.29 0 0 1-2-0.62 5.73 5.73 0 0 1-1.42-1.57q-0.59-1-1.61-2.8l-3.06-5.23a29 29 0 0 0-2.78-4.38 6.94 6.94 0 0 0-2.48-2.06 7.91 7.91 0 0 0-3.18-0.55z m4.12-16.25H706v10.63h6.45a16.63 16.63 0 0 0 4.36-0.49 4.53 4.53 0 0 0 3.64-4.89 5.32 5.32 0 0 0-0.75-2.84 4.65 4.65 0 0 0-2.08-1.83 13.86 13.86 0 0 0-4.93-0.58zM758 692.24h-16.2v9.5h14.93a3.37 3.37 0 0 1 2.46 0.8 2.86 2.86 0 0 1 0.81 2.12 3 3 0 0 1-0.8 2.15 3.29 3.29 0 0 1-2.47 0.83H741.8v11h16.78a3.48 3.48 0 0 1 2.56 0.86 3.08 3.08 0 0 1 0.86 2.28 3 3 0 0 1-0.86 2.23 3.48 3.48 0 0 1-2.56 0.86H739a4.38 4.38 0 0 1-3.38-1.14 5.37 5.37 0 0 1-1-3.67V691a7 7 0 0 1 0.46-2.76 3 3 0 0 1 1.44-1.56 5.64 5.64 0 0 1 2.51-0.49h19a3.49 3.49 0 0 1 2.56 0.83 2.93 2.93 0 0 1 0.84 2.18 3 3 0 0 1-0.84 2.2 3.5 3.5 0 0 1-2.59 0.84zM794.73 713.27a12.11 12.11 0 0 1-1.66 6.31 11.31 11.31 0 0 1-4.87 4.42 16.94 16.94 0 0 1-7.59 1.58 16 16 0 0 1-8.68-2.16 12.07 12.07 0 0 1-3.94-4.16 10 10 0 0 1-1.52-5.05 3.53 3.53 0 0 1 0.91-2.44 3 3 0 0 1 2.32-1 2.62 2.62 0 0 1 1.93 0.79 6.34 6.34 0 0 1 1.35 2.35 16.15 16.15 0 0 0 1.47 3.09 6.09 6.09 0 0 0 2.22 2 7.62 7.62 0 0 0 3.76 0.81 8 8 0 0 0 5.2-1.62 5 5 0 0 0 2-4.05 4.5 4.5 0 0 0-1.08-3.13 6.88 6.88 0 0 0-2.79-1.83 45.07 45.07 0 0 0-4.57-1.35 31.58 31.58 0 0 1-6.41-2.28 10.57 10.57 0 0 1-4.1-3.56 9.83 9.83 0 0 1-1.52-5.61 9.95 9.95 0 0 1 6.23-9.49 17.59 17.59 0 0 1 7.13-1.33 16.3 16.3 0 0 1 5.66 0.88 11.72 11.72 0 0 1 4 2.35 9.71 9.71 0 0 1 2.3 3.07 7.59 7.59 0 0 1 0.73 3.14 3.89 3.89 0 0 1-0.91 2.52 2.8 2.8 0 0 1-2.27 1.12 2.48 2.48 0 0 1-1.88-0.67 9.09 9.09 0 0 1-1.39-2.2 10 10 0 0 0-2.33-3.42 6.4 6.4 0 0 0-4.43-1.25 7.11 7.11 0 0 0-4.5 1.33 4 4 0 0 0-1.71 3.21 3.45 3.45 0 0 0 0.58 2 5 5 0 0 0 1.6 1.45 10.33 10.33 0 0 0 2.06 1q1 0.34 3.44 1a51 51 0 0 1 5.44 1.69 16.07 16.07 0 0 1 4.19 2.22 9.05 9.05 0 0 1 2.67 3.34 11.49 11.49 0 0 1 0.96 4.93zM800.88 708.89v-18.6a5.5 5.5 0 0 1 1-3.56 3.19 3.19 0 0 1 2.58-1.19 3.27 3.27 0 0 1 2.66 1.19 5.5 5.5 0 0 1 1 3.56v19a18.76 18.76 0 0 0 0.67 5.42 6.22 6.22 0 0 0 2.36 3.38 8.12 8.12 0 0 0 4.75 1.2q4.22 0 6-2.44t1.75-7.4v-19.16a5.53 5.53 0 0 1 1-3.58 3.19 3.19 0 0 1 2.59-1.17 3.3 3.3 0 0 1 2.63 1.17 5.39 5.39 0 0 1 1 3.58v18.6a29.85 29.85 0 0 1-0.81 7.57 11.88 11.88 0 0 1-3.07 5.33 11.74 11.74 0 0 1-4.51 2.85 18.27 18.27 0 0 1-6 0.9 22.93 22.93 0 0 1-7.05-1 11.1 11.1 0 0 1-4.82-3 12.3 12.3 0 0 1-2.74-5.17 28.52 28.52 0 0 1-0.99-7.48zM845.61 690.29v28.15h14.59a3.65 3.65 0 0 1 2.68 0.92 3.13 3.13 0 0 1 0.93 2.32 3.05 3.05 0 0 1-0.92 2.31 3.74 3.74 0 0 1-2.69 0.88h-17.38a4.38 4.38 0 0 1-3.38-1.14 5.37 5.37 0 0 1-1-3.67v-29.77a5.49 5.49 0 0 1 1-3.56 3.19 3.19 0 0 1 2.58-1.19 3.3 3.3 0 0 1 2.63 1.17 5.39 5.39 0 0 1 0.96 3.58zM885.42 692.66h-7.85v28.1a5.49 5.49 0 0 1-1 3.6 3.21 3.21 0 0 1-2.57 1.17 3.26 3.26 0 0 1-2.61-1.19 5.44 5.44 0 0 1-1-3.59v-28.1h-7.85a3.76 3.76 0 0 1-2.74-0.88 3.13 3.13 0 0 1-0.9-2.33 3.09 3.09 0 0 1 0.93-2.37 3.82 3.82 0 0 1 2.7-0.87h22.89a3.81 3.81 0 0 1 2.78 0.9 3.15 3.15 0 0 1 0.91 2.35 3.09 3.09 0 0 1-0.92 2.33 3.85 3.85 0 0 1-2.77 0.88z" fill="#FFFFFF" p-id="9537"></path><path d="M356.37 638.39l7.2-37.3-23.33 4.79 4.02-23.31-38.83 13.01 114.11-135.79 50.95 42.81-114.12 135.79zM667.63 638.39l-7.2-37.3 23.33 4.79-4.02-23.31 38.83 13.01-114.11-135.79-50.95 42.81 114.12 135.79z" fill="#0FCE9A" p-id="9538"></path><path d="M696 358.66C696 461.58 612.55 545 509.64 545s-186.35-83.42-186.35-186.34 83.43-186.34 186.34-186.34S696 255.75 696 358.66zM509.64 250.35A108.31 108.31 0 1 0 618 358.66a108.31 108.31 0 0 0-108.36-108.31z" fill="#FFBE00" p-id="9539"></path><path d="M565.45 316.43c0-7.5-4-5.71-10.2-5.6v-29.68h-88.83v29.67c-5.85-0.2-9.62-1.65-9.62 5.61s3.76 20.76 9.62 22.32v29.57h0.12a44.4 44.4 0 0 0 40.79 41.1v38.68h-27.58a3.56 3.56 0 1 0 0 7.11h62.16a3.56 3.56 0 0 0 0-7.11h-27.57v-38.68a44.4 44.4 0 0 0 40.79-41.1h0.12v-29.45c6.18-0.79 10.2-14.94 10.2-22.44z" fill="#FFBE00" p-id="9540"></path><path d="M473.86 352.87s-5.49 34.86 29.13 47.48c0 0 10.83 2.16-1.17-1.56-6.84-2.12-25.59-15-26.46-42-1.36-41.35-1.5-3.92-1.5-3.92z" fill="#FFFFFF" p-id="9541"></path></svg>