<?xml version="1.0" standalone="no"?><!DOCTYPE svg PUBLIC "-//W3C//DTD SVG 1.1//EN" "http://www.w3.org/Graphics/SVG/1.1/DTD/svg11.dtd"><svg t="1689492437418" class="icon" viewBox="0 0 1024 1024" version="1.1" xmlns="http://www.w3.org/2000/svg" p-id="11534" xmlns:xlink="http://www.w3.org/1999/xlink" width="200" height="200"><path d="M512 264.31c-197.91 0-355 153.74-355 347.32S314.11 959 512 959s355-153.75 355-347.37-157.12-347.32-355-347.32z m179.14 331.32L621.32 664l17.48 96.81c5.79 34.15-11.68 45.52-40.75 28.47l-87.3-45.56-87.29 45.56c-29.12 17-46.55 0-40.75-28.47L400.14 664l-69.82-68.34c-23.27-22.78-17.47-45.57 17.48-51.25L440.89 533l40.75-85.41c11.64-28.5 34.91-28.5 52.39 0L574.77 533l98.94 11.37c34.91 11.42 46.55 28.48 17.43 51.26zM867 104.88c5.84-5.69 5.84-11.41 5.84-11.41 0-11.37-11.64-22.75-23.27-22.75h-221.2c-11.64 0-23.27 5.69-23.27 17.06l-69.83 125.28s145.48 5.69 232.78 91.12zM488.73 213.06l-69.86-131c0-11.38-11.64-17.1-23.28-17.1H180.25c-17.44 0-29.07 11.41-29.07 22.78 0 5.69 0 11.41 5.8 11.41l98.93 199.27c87.29-74 232.82-85.4 232.82-85.4z" p-id="11535" fill="#d81e06"></path></svg>