<?xml version="1.0" standalone="no"?><!DOCTYPE svg PUBLIC "-//W3C//DTD SVG 1.1//EN" "http://www.w3.org/Graphics/SVG/1.1/DTD/svg11.dtd"><svg t="1699712907366" class="icon" viewBox="0 0 3438 1024" version="1.1" xmlns="http://www.w3.org/2000/svg" p-id="58938" xmlns:xlink="http://www.w3.org/1999/xlink" width="671.484375" height="200"><path d="M87.896167 183.674011c25.11319 0 45.667371-7.997585 62.782976-23.973438 17.134923-15.995171 26.272261-37.669786 26.272261-62.782976s-9.137338-45.686689-25.113191-61.662541C134.70329 19.279203 113.009357 11.281618 87.896167 11.281618c-25.11319 0-45.648053 7.997585-62.782977 23.973438C7.997585 51.230909 0 71.785089 0 96.89828c0 25.11319 7.997585 45.667371 25.11319 62.782976 17.134923 15.995171 37.669786 23.992756 62.782977 23.992755zM167.06067 1004.527618V285.440386H8.499849V1004.527618h158.560821z m486.500453 0V150.5246H901.756716v-139.088439H242.632056v139.088439h248.195593V1004.527618h162.733474z m510.918201 19.472382c95.971023 0 175.251434-27.817688 239.232116-82.062179 50.071838-44.508301 83.453064-101.534561 100.143676-168.297012H1345.294295c-19.472382 40.335647-40.335647 69.54422-63.980682 87.625717-30.599457 22.25415-69.54422 33.381225-118.225174 33.381225-57.02626 0-101.534561-18.081497-132.134017-52.853607-30.599457-34.77211-48.680954-86.234832-54.244491-152.997283h538.27226c0-129.352249-29.208572-230.88681-86.234832-303.212798-62.589798-80.671295-152.997283-119.616058-271.222457-119.616058-107.098098 0-191.942046 36.162994-253.14096 109.879867-63.980682 72.325989-94.580139 161.34259-94.580139 268.440688 0 119.616058 33.381225 212.805312 100.143677 280.958648 62.589798 65.371567 147.433746 98.752792 254.531844 98.752792z m184.987624-454.819197H979.491699c9.736191-57.02626 29.208572-100.143676 58.417145-129.352249 30.599457-30.599457 70.935104-44.508301 123.788711-44.5083 111.270752 0 173.860549 57.02626 187.769393 173.860549z m486.964081 454.819197c62.589798 0 116.834289-11.127075 162.733474-31.990341 40.335647-19.472382 75.107757-45.899185 102.925446-82.062179V1004.527618h147.433746V545.535768c0-87.625717-22.25415-154.388168-66.762451-200.287353-50.071838-52.853607-129.352249-79.280411-235.059463-79.28041-91.79837 0-164.124359 15.299728-216.977966 48.680954-62.589798 36.162994-101.534561 94.580139-116.834289 173.860549l157.169937 12.51796c8.345306-37.553879 29.208572-65.371567 59.808029-83.453064 26.426804-16.690613 61.198913-23.645035 105.707214-23.645035 102.925445 0 154.388168 45.899185 154.388168 140.479324v27.817688l-157.169937 4.172653c-105.707214 2.781769-187.769393 25.035919-246.186538 66.762451-63.980682 43.117416-94.580139 105.707214-94.580139 186.378509 0 59.808029 22.25415 108.488983 66.762451 147.433746 43.117416 37.553879 101.534561 57.02626 176.642318 57.02626z m-2.472683-121.006942c-34.77211 0-62.589798-9.736191-84.843948-26.426804-22.25415-16.690613-31.990341-37.553879-31.990341-62.589798 0-86.234832 62.589798-130.743133 189.160277-133.524902l146.042862-4.172653v36.162995c0 55.635376-22.25415 101.534561-63.980682 137.697555-41.726532 34.77211-93.189254 52.853607-154.388168 52.853607zM2517.037126 1004.527618V573.353456c0-47.290069 13.908844-89.016601 41.726532-122.397827 27.817688-36.162994 63.980682-52.853607 109.879868-52.853607 94.580139 0 141.870208 54.244491 141.870208 164.124359V1004.527618h158.560821V565.00815c0-52.853607 12.51796-93.189254 40.335647-122.397827 26.426804-30.599457 58.417145-44.508301 97.361908-44.508301 55.635376 0 94.580139 12.51796 119.616058 38.944763 23.645035 25.035919 36.162994 66.762451 36.162994 123.788712V1004.527618h158.560821V533.017809c0-79.280411-25.035919-143.261093-72.325988-193.332931-50.071838-50.071838-111.270752-73.716873-184.987625-73.716873-48.680954 0-89.016601 8.345306-121.006942 25.035919-36.162994 16.690613-70.935104 47.290069-104.31633 91.79837-45.899185-77.889526-121.006942-116.834289-226.714156-116.834289-69.54422 0-134.915786 30.599457-194.723816 93.189254v-73.716873h-158.560821V1004.527618h158.560821z" p-id="58939" fill="#8fb4fd"></path></svg>