<?xml version="1.0" standalone="no"?><!DOCTYPE svg PUBLIC "-//W3C//DTD SVG 1.1//EN" "http://www.w3.org/Graphics/SVG/1.1/DTD/svg11.dtd"><svg t="1708596133913" class="icon" viewBox="0 0 1028 1024" version="1.1" xmlns="http://www.w3.org/2000/svg" p-id="6991" xmlns:xlink="http://www.w3.org/1999/xlink" width="200.78125" height="200"><path d="M1026.327273 1024H4.189091V0H1026.327273z m0-1024H3.258182v1024h1024z" fill="#050404" opacity=".2" p-id="6992"></path><path d="M956.276364 954.181818H74.007273V69.818182h882.269091z m0-884.363636h-884.363637v884.363636h884.363637z" fill="#050404" opacity=".2" p-id="6993"></path><path d="M4.189091 116.363636H1026.327273v791.272728H4.189091z m0 791.272728h1024V116.363636H3.258182z" fill="#050404" opacity=".2" p-id="6994"></path><path d="M120.552727 0h789.178182v1024H120.552727z m0 1024h791.272728V0h-791.272728z" fill="#050404" opacity=".2" p-id="6995"></path><path d="M515.258182 207.36A304.64 304.64 0 1 1 210.618182 512 304.872727 304.872727 0 0 1 515.258182 207.36m0 0A305.570909 305.570909 0 1 0 820.596364 512 305.570909 305.570909 0 0 0 515.258182 206.429091" fill="#050404" opacity=".2" p-id="6996"></path><path d="M515.025455 296.96A215.04 215.04 0 1 1 300.218182 512a215.272727 215.272727 0 0 1 214.807273-215.04m0 0A215.970909 215.970909 0 1 0 730.996364 512a215.970909 215.970909 0 0 0-215.970909-215.970909" fill="#050404" opacity=".2" p-id="6997"></path><path d="M833.629091 53.527273H196.654545a193.629091 193.629091 0 0 0-193.396363 193.629091v391.912727a193.629091 193.629091 0 0 0 193.396363 193.396364h232.727273l240.872727 156.16a46.545455 46.545455 0 0 0 25.367273 7.68 45.149091 45.149091 0 0 0 23.272727-5.818182 46.545455 46.545455 0 0 0 23.272728-40.727273v-116.363636h91.229091a193.861818 193.861818 0 0 0 193.629091-193.396364V247.156364a193.861818 193.861818 0 0 0-193.396364-193.629091z m100.538182 585.541818a100.538182 100.538182 0 0 1-100.538182 100.305454H695.854545a46.545455 46.545455 0 0 0-46.545454 46.545455v78.196364l-180.596364-116.363637a46.545455 46.545455 0 0 0-25.367272-7.68H196.654545a100.305455 100.305455 0 0 1-100.305454-100.305454V247.156364A100.538182 100.538182 0 0 1 196.654545 146.618182h636.974546a100.770909 100.770909 0 0 1 100.538182 100.538182z" fill="#409EFF" p-id="6998"></path><path d="M545.978182 251.112727a46.545455 46.545455 0 0 0-66.094546 0l-130.327272 130.327273a46.545455 46.545455 0 0 0 65.861818 65.629091L465.454545 395.636364v189.672727a46.545455 46.545455 0 0 0 93.09091 0V395.636364l51.898181 51.898181a46.545455 46.545455 0 1 0 65.861819-65.62909z" fill="#409EFF" p-id="6999"></path></svg>