<?xml version="1.0" standalone="no"?><!DOCTYPE svg PUBLIC "-//W3C//DTD SVG 1.1//EN" "http://www.w3.org/Graphics/SVG/1.1/DTD/svg11.dtd"><svg t="1708596259273" class="icon" viewBox="0 0 1024 1024" version="1.1" xmlns="http://www.w3.org/2000/svg" p-id="9047" xmlns:xlink="http://www.w3.org/1999/xlink" width="200" height="200"><path d="M795.031056 527.900621c6.360248 0 12.720497 6.360248 12.720497 12.720497l6.360248 63.602484c12.720497 6.360248 25.440994 6.360248 38.161491 12.720497h6.360248l50.881988-38.16149 6.360248-6.360249h6.360249l38.161491 38.161491c6.360248 6.360248 6.360248 12.720497 0 19.080745l-38.161491 50.881988 19.080745 38.161491v6.360248l63.602485 6.360248c6.360248 0 12.720497 6.360248 12.720497 12.720497v50.881988c0 6.360248-6.360248 12.720497-12.720497 12.720497l-63.602485 6.360248c0 12.720497-6.360248 25.440994-12.720497 38.161491l38.161491 50.881988c6.360248 6.360248 6.360248 12.720497 0 19.080745l-38.161491 38.161491-6.360248 6.360248h-6.360249l-50.881987-38.161491-38.161491 19.080746h-6.360248l-6.360249 63.602484c0 6.360248-6.360248 12.720497-12.720497 12.720497h-57.242236c-6.360248 0-12.720497-6.360248-12.720497-12.720497l-6.360248-63.602484c-12.720497 0-25.440994-6.360248-38.161491-12.720497h-6.360248l-44.521739 31.801242s-6.360248 0-6.360249 6.360248h-6.360248l-38.161491-38.16149c-12.720497-12.720497-12.720497-19.080745-12.720497-25.440994l38.161491-44.521739-19.080745-38.161491v-6.360248l-63.602485-6.360249c-6.360248 0-12.720497-6.360248-12.720497-12.720497v-57.242236c0-6.360248 6.360248-12.720497 12.720497-12.720497l63.602485-6.360248c6.360248-12.720497 6.360248-25.440994 12.720496-38.161491v-6.360248l-25.440993-44.521739c-6.360248-6.360248-6.360248-12.720497 0-19.080746l38.16149-38.16149 6.360249-6.360249h6.360248l50.881988 38.161491 38.161491-19.080745h6.360248l6.360248-63.602485c0-6.360248 6.360248-12.720497 12.720497-12.720497l50.881988 12.720497z m-25.440994 171.726708c-38.161491 0-69.962733 31.801242-69.962733 69.962733 0 38.161491 31.801242 69.962733 69.962733 69.962733 38.161491 0 69.962733-31.801242 69.962733-69.962733 0-38.161491-31.801242-69.962733-69.962733-69.962733z" fill="#92b6ff" p-id="9048"></path><path d="M483.378882 960.397516c-19.080745 12.720497-38.161491 19.080745-63.602484 19.080745-57.242236 0-101.763975-44.521739-101.763976-101.763975h127.204969c6.360248 25.440994 19.080745 57.242236 38.161491 82.68323zM419.776398 0c44.521739 0 82.68323 31.801242 95.403726 76.322981 152.645963 31.801242 260.770186 171.726708 260.770187 330.73292v19.080745h-6.360249c-190.807453 6.360248-337.093168 159.006211-337.093168 349.813665 0 19.080745 0 38.161491 6.360249 50.881987H63.602484c-19.080745-6.360248-31.801242-19.080745-38.16149-31.801242-19.080745-31.801242-25.440994-50.881988-25.440994-76.322981 0-63.602484 31.801242-114.484472 82.68323-146.285715V400.695652c0-146.285714 101.763975-279.850932 241.689441-324.372671C330.732919 31.801242 368.89441 0 419.776398 0z" fill="#92b6ff" p-id="9049"></path></svg>