<?xml version="1.0" standalone="no"?><!DOCTYPE svg PUBLIC "-//W3C//DTD SVG 1.1//EN" "http://www.w3.org/Graphics/SVG/1.1/DTD/svg11.dtd"><svg t="1699713201559" class="icon" viewBox="0 0 1024 1024" version="1.1" xmlns="http://www.w3.org/2000/svg" p-id="74695" xmlns:xlink="http://www.w3.org/1999/xlink" width="200" height="200"><path d="M0 0h1024v1024H0z" fill="#1296db" fill-opacity=".01" p-id="74696"></path><path d="M768 585.142857a219.428571 219.428571 0 1 1 0 438.857143 219.428571 219.428571 0 0 1 0-438.857143zM439.734857 38.838857a73.142857 73.142857 0 0 1 71.387429 0l365.714285 204.653714a73.142857 73.142857 0 0 1 37.449143 63.853715l0.073143 243.858285A291.254857 291.254857 0 0 0 768 512c-48.64 0-94.500571 11.849143-134.875429 32.914286l-122.88-73.654857V279.771429l-0.512-6.436572a35.108571 35.108571 0 0 0-34.304-29.549714 35.401143 35.401143 0 0 0-34.816 35.986286v191.488L238.445714 592.310857l-5.12 3.730286a36.864 36.864 0 0 0-7.533714 45.421714l3.657143 5.339429a34.084571 34.084571 0 0 0 43.885714 7.753143L475.428571 533.577143l93.915429 56.246857A291.84 291.84 0 0 0 475.428571 804.571429c0 62.171429 19.456 119.954286 52.516572 167.350857l-16.822857 9.362285a73.142857 73.142857 0 0 1-71.387429 0l-365.714286-204.653714A73.142857 73.142857 0 0 1 36.571429 712.777143V307.346286a73.142857 73.142857 0 0 1 37.449142-63.853715l365.714286-204.653714zM768 658.285714a36.571429 36.571429 0 0 0-35.986286 29.988572L731.428571 694.857143v73.142857H658.285714a36.571429 36.571429 0 0 0-6.582857 72.557714L658.285714 841.142857h73.142857v73.142857a36.571429 36.571429 0 0 0 72.557715 6.582857L804.571429 914.285714v-73.142857h73.142857a36.571429 36.571429 0 0 0 6.582857-72.557714L877.714286 768h-73.142857v-73.142857a36.571429 36.571429 0 0 0-36.571429-36.571429z" fill="#1296db" p-id="74697"></path></svg>