<?xml version="1.0" standalone="no"?><!DOCTYPE svg PUBLIC "-//W3C//DTD SVG 1.1//EN" "http://www.w3.org/Graphics/SVG/1.1/DTD/svg11.dtd"><svg t="1704977191306" class="icon" viewBox="0 0 1024 1024" version="1.1" xmlns="http://www.w3.org/2000/svg" p-id="1762" xmlns:xlink="http://www.w3.org/1999/xlink" width="200" height="200"><path d="M255.319141 74.416593a25.150793 25.150793 0 0 0-32.965175 0.255947L153.674185 136.133816v-8.054332c0-9.424049-7.638419-17.062468-17.062468-17.062468s-17.062468 7.638419-17.062467 17.062468v38.614005L91.103139 192.152218a17.064467 17.064467 0 0 0 22.761288 25.424737l125.124095-112.002812 125.124095 112.002812a17.064467 17.064467 0 1 0 22.761288-25.424737l-131.554764-117.735625zM341.369326 238.990521a17.062468 17.062468 0 0 0-17.062468 17.062468v119.441272H153.674185v-119.441272c0-9.424049-7.638419-17.062468-17.062468-17.062468s-17.062468 7.638419-17.062467 17.062468v130.277029c0.167965 13.027303 10.861751 23.453144 23.889054 23.291178h191.106435c13.035301 0.131973 23.719089-10.307866 23.889054-23.343168v-130.225039a17.066467 17.066467 0 0 0-17.064467-17.062468zM238.990521 443.74813c-65.966343 0-119.441272 53.476929-119.441271 119.441272s53.476929 119.441272 119.441271 119.441272 119.441272-53.476929 119.441272-119.441272c-0.075984-65.93435-53.506922-119.367287-119.441272-119.441272z m-85.316336 119.441272c0.051989-40.52761 28.556088-75.44638 68.251869-83.60869v73.934693L158.793125 591.377566a84.124584 84.124584 0 0 1-5.11894-28.188164z m22.703299 57.446107l59.967585-35.980551 49.619727 49.619727c-34.858783 23.255185-81.493128 17.450387-109.587312-13.639176z m133.714317-10.487829l-54.038812-54.022815v-76.544153a85.166368 85.166368 0 0 1 54.038812 130.566968zM921.515218 307.242391v-58.407908c-0.009998-14.856924-12.051505-26.898431-26.90843-26.908429H846.044842c-14.856924 0.009998-26.898431 12.051505-26.908429 26.908429v58.407908h-34.126934v-106.98585c-0.017996-16.294627-13.223262-29.499893-29.519889-29.519889h-43.341027c-16.292627 0.019996-29.497893 13.225262-29.517889 29.519889v106.98585H648.505739V119.54725c0-18.848098-15.278837-34.126935-34.126935-34.126935h-34.126934c-18.848098 0-34.126935 15.278837-34.126935 34.126935v187.695141h-17.062467a17.062468 17.062468 0 0 1-17.062468-17.062467V85.422315a17.062468 17.062468 0 0 0-34.124935 0v204.757609c0 28.270147 22.917255 51.189402 51.189402 51.189402h392.45275a17.064467 17.064467 0 0 0-0.001999-34.126935z m-307.136414 0h-34.126934V119.54725h34.126934v187.695141z m136.505739 0h-34.126934v-102.378804h34.126934v102.378804z m136.50374 0H853.263348v-51.189402h34.126934v51.189402zM921.515218 648.505739H529.062468a17.062468 17.062468 0 0 1-17.062468-17.062467v-27.062398l56.188367-56.188367a17.420393 17.420393 0 0 1 24.127005 0l19.99786 19.99786c19.989861 19.983863 52.393153 19.983863 72.381015 0l71.187262-71.187262a17.420393 17.420393 0 0 1 24.127005 0l19.99786 20.015856c20.011857 19.927874 52.369158 19.927874 72.381015 0l61.189331-61.189332a17.062468 17.062468 0 0 0-0.207957-23.919048 17.062468 17.062468 0 0 0-23.919048-0.207957l-61.189331 61.171336a17.064467 17.064467 0 0 1-24.127005 0l-19.99786-19.99786c-20.255806-19.331998-52.127208-19.331998-72.381015 0l-71.187262 71.187262a17.064467 17.064467 0 0 1-24.127005 0l-19.979864-19.99786c-20.259806-19.333997-52.139206-19.333997-72.399011 0l-32.061362 32.061362v-129.441201a17.062468 17.062468 0 0 0-34.124935 0v204.757609c0 28.270147 22.917255 51.189402 51.189402 51.189402h392.45275a17.064467 17.064467 0 0 0-0.001999-34.126935z" p-id="1763" fill="#92b6ff"></path><path d="M1023.894022 792.755875V94.72039C1026.267531 45.102662 988.175417 2.859408 938.577685 0.105978H85.422315C35.824583 2.861408-2.267531 45.104662 0.105978 94.72039v698.035485c-2.381507 49.623726 35.710607 91.876979 85.316337 94.632408h273.009478v34.126935H290.179924c-37.694196 0-68.25187 30.557674-68.25187 68.251869v17.062468a17.062468 17.062468 0 0 0 17.062467 17.062467h546.020957a17.062468 17.062468 0 0 0 17.062468-17.062467v-17.062468c0-37.694196-30.557674-68.25187-68.25187-68.251869h-68.25187v-34.126935h273.009479c49.60373-2.75343 87.695844-45.008682 85.314337-94.632408z m-290.073946 162.886277c18.848098 0 34.126935 15.278837 34.126935 34.126935h-511.894022c0-18.848098 15.278837-34.126935 34.126935-34.126935h443.640152zM392.558728 921.515218v-34.126935h238.884544v34.126935H392.558728z m546.018957-68.25187H85.422315c-30.715641-2.819416-53.496924-29.747841-51.189402-60.505474V750.884543h955.536174v41.873331c2.307522 30.757632-20.473761 57.686057-51.191402 60.505474z m51.189402-758.542958v622.037219H34.232913V94.72039c-2.307522-30.755633 20.475761-57.678059 51.189402-60.489477h853.15737c30.711642 2.811418 53.496924 29.733844 51.187402 60.489477z" p-id="1764" fill="#92b6ff"></path></svg>