<?xml version="1.0" standalone="no"?><!DOCTYPE svg PUBLIC "-//W3C//DTD SVG 1.1//EN" "http://www.w3.org/Graphics/SVG/1.1/DTD/svg11.dtd"><svg t="1727789319469" class="icon" viewBox="0 0 1024 1024" version="1.1" xmlns="http://www.w3.org/2000/svg" p-id="25194" xmlns:xlink="http://www.w3.org/1999/xlink" width="128" height="128"><path d="M128 640v213.333333a42.666667 42.666667 0 0 0 42.666667 42.666667h682.666666a42.666667 42.666667 0 0 0 42.666667-42.666667V640H128z" fill="#78909C" p-id="25195"></path><path d="M832 170.666667a42.666667 42.666667 0 0 0-42.666667-42.666667H234.666667a42.666667 42.666667 0 0 0-42.666667 42.666667L128 640a42.666667 42.666667 0 0 0 42.666667 42.666667h682.666666a42.666667 42.666667 0 0 0 42.666667-42.666667L832 170.666667z" fill="#455A64" p-id="25196"></path><path d="M192 682.666667h469.333333v149.333333H192z" fill="#263238" p-id="25197"></path><path d="M234.666667 746.666667h42.666666v85.333333h-42.666666z m85.333333 0h42.666667v85.333333h-42.666667z m85.333333 0h42.666667v85.333333h-42.666667z m85.333334 0h42.666666v85.333333h-42.666666z m85.333333 0h42.666667v85.333333h-42.666667z" fill="#FDD835" p-id="25198"></path><path d="M789.333333 746.666667a42.666667 42.666667 0 1 0 0 85.333333 42.666667 42.666667 0 1 0 0-85.333333z" fill="#64DD17" p-id="25199"></path><path d="M597.333333 320a85.333333 85.333333 0 1 1-170.666666 0 85.333333 85.333333 0 0 1 170.666666 0" fill="#FFB74D" p-id="25200"></path><path d="M661.333333 533.333333s-41.344-85.333333-149.333333-85.333333c-108.010667 0-149.333333 85.333333-149.333333 85.333333v42.666667h298.666666v-42.666667z" fill="#90CAF9" p-id="25201"></path></svg>