<?xml version="1.0" standalone="no"?><!DOCTYPE svg PUBLIC "-//W3C//DTD SVG 1.1//EN" "http://www.w3.org/Graphics/SVG/1.1/DTD/svg11.dtd"><svg t="1727789111494" class="icon" viewBox="0 0 1076 1024" version="1.1" xmlns="http://www.w3.org/2000/svg" p-id="18551" xmlns:xlink="http://www.w3.org/1999/xlink" width="134.5" height="128"><path d="M806.316914 645.029949c-0.110198 1.432571-0.330593 2.865141-0.716286 4.242613l-0.49589 1.708065c-0.440791 1.267274-0.99178 2.534548-1.597867 3.801822-0.220395 0.49589-0.440791 0.99178-0.716285 1.48767-0.936681 1.597867-1.983559 3.250834-3.250834 4.848701 0 0 0 0.055099-0.055099 0.110197-1.267274 1.597867-2.754944 3.195735-4.352811 4.848701-0.550989 0.550989-1.157076 1.046879-1.763164 1.597868-1.157076 1.046879-2.314153 2.093757-3.581426 3.140635-0.771384 0.606088-1.597867 1.212175-2.424351 1.873362-1.212175 0.936681-2.479449 1.873362-3.856921 2.754944-0.936681 0.661186-1.928461 1.267274-2.92024 1.92846-1.432571 0.881582-2.92024 1.818263-4.40791 2.699845-1.101977 0.606088-2.203955 1.267274-3.305933 1.873362-1.652966 0.936681-3.41613 1.818263-5.234392 2.699845-1.157076 0.606088-2.314153 1.157076-3.581427 1.763164-2.093757 0.99178-4.352811 1.983559-6.611865 2.975339-1.101977 0.49589-2.148856 0.99178-3.305932 1.43257-3.581427 1.48767-7.383249 3.030438-11.350368 4.463009-0.550989 0.220395-1.101977 0.385692-1.652967 0.606088-3.691625 1.322373-7.548546 2.644746-11.515664 3.967119-1.322373 0.440791-2.754944 0.881582-4.132416 1.322373-4.022218 1.267274-8.154633 2.534548-12.507444 3.746723-1.322373 0.385692-2.589647 0.771384-3.91202 1.101977-4.958899 1.377472-10.027995 2.699845-15.372586 4.022218-2.479449 0.606088-5.013997 1.157076-7.548545 1.763164-7.82404 1.818263-15.868476 3.581427-24.133307 5.234393l-2.479449 0.49589a809.479589 809.479589 0 0 1-31.516556 5.564986c-10.468786 1.652966-21.102869 3.195735-32.067544 4.573207-1.212175 0.165297-2.479449 0.275494-3.691625 0.440791-6.33637 0.771384-12.72784 1.542768-19.174408 2.203955l-6.115974 0.661186c-7.658743 0.771384-15.372586 1.542768-23.196626 2.203955-0.330593 0-0.606088 0-0.936681 0.055099-6.501667 0.550989-13.058433 1.046879-19.670298 1.542768-1.157076 0.110198-2.369252 0.165297-3.526328 0.220396-13.278828 0.936681-26.722954 1.652966-40.277276 2.203955-1.928461 0.055099-3.91202 0.165297-5.840481 0.220395-4.242613 0.165297-8.540325 0.330593-12.782938 0.440791-2.754944 0.110198-5.564986 0.165297-8.31993 0.275495-3.195735 0.055099-6.446568 0.165297-9.642303 0.220395l-9.8076 0.165297c-2.534548 0-5.069096 0.055099-7.603644 0.055099-3.636526 0-7.217952 0.055099-10.854478 0.055099h-18.568321c-2.534548 0-5.069096 0-7.603644-0.055099-3.581427 0-7.107755-0.110198-10.634083-0.165297-2.699845 0-5.454788-0.110198-8.154633-0.165297-3.471229-0.055099-6.942458-0.165297-10.358588-0.275494-2.865141-0.110198-5.675184-0.165297-8.540326-0.275494-3.140636-0.110198-6.33637-0.220395-9.477006-0.385692-3.250834-0.110198-6.501667-0.275494-9.7525-0.440791l-9.201512-0.49589c-3.361031-0.165297-6.777161-0.330593-10.138193-0.550989-2.975339-0.165297-5.950678-0.385692-8.926017-0.550989-3.471229-0.220395-6.997557-0.440791-10.468786-0.716285l-8.650524-0.661187c-3.581427-0.275494-7.162854-0.550989-10.74428-0.881582-2.865141-0.220395-5.675184-0.49589-8.540325-0.771384-3.581427-0.330593-7.217952-0.661186-10.744281-1.046878-2.810043-0.275494-5.564986-0.550989-8.319929-0.881582-3.636526-0.385692-7.217952-0.771384-10.79938-1.212176-2.644746-0.330593-5.344591-0.606088-7.989336-0.93668l-11.791159-1.48767c-2.369252-0.330593-4.793602-0.606088-7.162854-0.936681-4.9038-0.661186-9.807599-1.377472-14.601201-2.093757-1.432571-0.220395-2.865141-0.385692-4.242613-0.606088-6.446568-0.99178-12.782939-2.038658-19.064211-3.140635-1.48767-0.275494-2.92024-0.550989-4.352811-0.771385-5.234393-0.936681-10.413687-1.928461-15.482783-2.92024-1.873362-0.385692-3.746723-0.771384-5.564986-1.157076-6.942458-1.432571-13.829817-2.92024-20.496781-4.463009-3.140636-0.716285-6.060876-1.48767-9.091314-2.259054-2.038658-0.49589-4.132416-0.99178-6.115975-1.542768-2.865141-0.771384-5.564986-1.542768-8.31993-2.259054-1.818263-0.49589-3.746723-0.99178-5.509887-1.542769-4.242613-1.212175-8.264831-2.479449-12.23195-3.691624-1.212175-0.385692-2.314153-0.771384-3.471229-1.157076a218.742527 218.742527 0 0 1-7.879139-2.699845c-1.377472-0.49589-2.699845-0.99178-4.077317-1.48767-2.203955-0.826483-4.40791-1.652966-6.501667-2.479449-1.377472-0.550989-2.644746-1.046879-3.967119-1.597867-1.983559-0.826483-3.91202-1.597867-5.785382-2.424351-1.267274-0.550989-2.479449-1.101977-3.691624-1.652966-1.818263-0.826483-3.581427-1.708065-5.289492-2.534548-1.101977-0.550989-2.203955-1.046879-3.250833-1.597868-1.763164-0.936681-3.471229-1.873362-5.124196-2.810042-0.826483-0.49589-1.708065-0.936681-2.534548-1.432571-2.203955-1.322373-4.297712-2.589647-6.281271-3.91202l-0.49589-0.330593c-2.093757-1.432571-4.077317-2.865141-5.89558-4.297712-0.550989-0.440791-1.046879-0.881582-1.597867-1.377472-1.212175-0.99178-2.369252-1.983559-3.41613-3.030438-0.606088-0.550989-1.101977-1.101977-1.652966-1.708065-0.881582-0.936681-1.763164-1.818263-2.534549-2.754944l-1.43257-1.763164c-0.716285-0.881582-1.322373-1.818263-1.928461-2.699845-0.385692-0.606088-0.771384-1.212175-1.101977-1.818262-0.550989-0.936681-0.99178-1.873362-1.432571-2.754944-0.275494-0.550989-0.550989-1.157076-0.771384-1.708065-0.385692-0.99178-0.661186-2.038658-0.936681-3.030438-0.110198-0.49589-0.275494-0.99178-0.385692-1.48767-0.275494-1.48767-0.440791-2.975339-0.440791-4.463009L0 861.788917c0 1.48767 0.165297 2.975339 0.440791 4.463008 0.110198 0.49589 0.275494 0.99178 0.385692 1.48767 0.275494 0.99178 0.550989 2.038658 0.936681 3.030438 0.220395 0.550989 0.49589 1.157076 0.771384 1.708065 0.440791 0.936681 0.881582 1.873362 1.432571 2.754944 0.330593 0.606088 0.716285 1.212175 1.101977 1.818263 0.606088 0.881582 1.212175 1.818263 1.928461 2.699844 0.440791 0.606088 0.936681 1.212175 1.432571 1.763164 0.771384 0.936681 1.652966 1.818263 2.534548 2.754944l1.652966 1.652966c1.046879 0.99178 2.203955 1.983559 3.41613 2.975339 0.550989 0.440791 1.046879 0.936681 1.652966 1.377472 1.818263 1.432571 3.801822 2.865141 5.89558 4.297712 0.220395 0.110198 0.440791 0.275494 0.606087 0.385692 1.928461 1.322373 4.022218 2.589647 6.171074 3.856922 0.826483 0.49589 1.708065 0.936681 2.589647 1.43257 1.652966 0.936681 3.305932 1.873362 5.124196 2.754944 1.046879 0.550989 2.148856 1.046879 3.250833 1.597867 1.708065 0.826483 3.471229 1.708065 5.344591 2.534548 1.212175 0.550989 2.42435 1.101977 3.691624 1.652967 1.873362 0.826483 3.801822 1.652966 5.785382 2.42435 1.322373 0.550989 2.644746 1.101977 4.022218 1.597867 2.093757 0.826483 4.297712 1.652966 6.501667 2.47945 1.322373 0.49589 2.644746 0.99178 4.022218 1.487669 2.534548 0.881582 5.234393 1.818263 7.934237 2.699845l3.471229 1.157076c3.91202 1.267274 7.879139 2.479449 12.066654 3.691625h0.165296c1.652966 0.49589 3.471229 0.936681 5.234393 1.432571 2.865141 0.771384 5.620085 1.597867 8.595425 2.369251 2.038658 0.550989 4.187514 1.046879 6.281271 1.542769 2.699845 0.661186 5.289492 1.377472 8.099534 1.983559 0.275494 0.055099 0.606088 0.110198 0.881582 0.220396 6.666964 1.542768 13.554323 3.030438 20.496781 4.463008 0.881582 0.165297 1.652966 0.385692 2.534549 0.550989 0.99178 0.220395 2.038658 0.385692 3.030438 0.550989 5.124195 0.99178 10.24839 1.983559 15.537882 2.92024 1.101977 0.220395 2.093757 0.385692 3.195735 0.606088l1.157076 0.165296c6.226173 1.101977 12.617642 2.148856 19.009111 3.140636 0.220395 0 0.385692 0.055099 0.606088 0.110198 1.212175 0.165297 2.479449 0.330593 3.691624 0.550989 4.848701 0.716285 9.697402 1.432571 14.601202 2.093757 0.661186 0.110198 1.322373 0.220395 1.983559 0.275494l5.124195 0.661187 11.791159 1.487669c1.046879 0.110198 2.093757 0.275494 3.140636 0.385692 1.597867 0.165297 3.250834 0.330593 4.848701 0.550989 3.581427 0.385692 7.162854 0.826483 10.799379 1.212175 1.377472 0.165297 2.699845 0.330593 4.022218 0.440791 1.432571 0.165297 2.865141 0.275494 4.297712 0.385692 3.581427 0.330593 7.162854 0.716285 10.74428 1.046879 1.597867 0.165297 3.140636 0.330593 4.793602 0.440791l3.746724 0.330593c3.581427 0.330593 7.162854 0.606088 10.74428 0.881582 1.818263 0.165297 3.636526 0.330593 5.454789 0.440791 1.046879 0.055099 2.148856 0.165297 3.250833 0.220396 3.471229 0.275494 6.942458 0.49589 10.468786 0.716285 2.038658 0.110198 4.022218 0.275494 6.060876 0.385692l2.810043 0.165297c3.41613 0.220395 6.83226 0.385692 10.24839 0.550989l6.391469 0.330593c0.881582 0 1.763164 0.055099 2.589648 0.110198 3.305932 0.165297 6.611865 0.275494 9.917797 0.440791 2.259054 0.110198 4.463009 0.220395 6.722062 0.275494 0.881582 0 1.763164 0 2.644746 0.110198 2.865141 0.110198 5.785382 0.165297 8.650523 0.275494 2.314153 0.055099 4.573206 0.165297 6.88736 0.220395 1.101977 0 2.203955 0 3.305932 0.055099l8.264831 0.165297c2.148856 0 4.242613 0.110198 6.391469 0.110198h4.242614c2.534548 0 5.069096 0.055099 7.603644 0.055099h22.645637c2.259054 0 4.518108 0 6.777161-0.055099 2.534548 0 5.069096 0 7.603645-0.055099h2.975339c2.259054 0 4.518108-0.110198 6.777162-0.165297 3.250834-0.055099 6.501667-0.110198 9.7525-0.220395 0.936681 0 1.873362 0 2.810043-0.055099 1.763164 0 3.526328-0.110198 5.34459-0.165297 4.297712-0.110198 8.650523-0.275494 12.948236-0.440791 1.267274 0 2.479449-0.055099 3.746723-0.110197 0.716285 0 1.377472-0.110198 2.093757-0.110198 13.554323-0.550989 26.998448-1.322373 40.277277-2.203955 0.606088 0 1.212175-0.055099 1.818263-0.110198 0.606088 0 1.157076-0.110198 1.708065-0.110198 6.777161-0.49589 13.499224-0.99178 20.111088-1.542768h0.385693c7.82404-0.661186 15.592981-1.432571 23.251724-2.203955l6.115975-0.661187c6.501667-0.716285 12.948235-1.432571 19.284606-2.259053l2.865141-0.330594c0.220395 0 0.440791-0.055099 0.716286-0.110197 10.909577-1.377472 21.653857-2.92024 32.067544-4.573207 0.49589-0.055099 0.99178-0.110198 1.432571-0.220395 0.220395 0 0.385692-0.055099 0.606087-0.110198 10.083094-1.597867 19.890693-3.361031 29.422799-5.234393 0.550989-0.110198 1.157076-0.220395 1.708065-0.275494 0.275494 0 0.49589-0.110198 0.771384-0.165297 8.31993-1.652966 16.309267-3.41613 24.133306-5.234393l2.369252-0.49589c1.763164-0.440791 3.471229-0.826483 5.179294-1.267274 5.344591-1.322373 10.413687-2.644746 15.372586-4.022218l1.377472-0.330593c0.881582-0.220395 1.652966-0.49589 2.534548-0.771384 4.297712-1.212175 8.485227-2.479449 12.507444-3.746724 0.826483-0.275494 1.708065-0.49589 2.479449-0.771384 0.550989-0.165297 1.046879-0.385692 1.597868-0.550989 3.967119-1.322373 7.82404-2.644746 11.515664-3.967118 0.440791-0.165297 0.936681-0.330593 1.377472-0.49589 0.110198 0 0.165297-0.055099 0.275494-0.110198 3.967119-1.48767 7.768941-2.975339 11.350368-4.463009 0.220395-0.110198 0.49589-0.220395 0.771385-0.275494 0.881582-0.385692 1.652966-0.771384 2.534548-1.157077 2.259054-0.99178 4.518108-1.983559 6.611865-3.030438 0.440791-0.220395 0.936681-0.385692 1.322373-0.606087 0.771384-0.385692 1.48767-0.771384 2.259053-1.157076 1.763164-0.881582 3.526328-1.818263 5.179295-2.699845 0.550989-0.275494 1.157076-0.550989 1.652966-0.881582 0.606088-0.330593 1.101977-0.661186 1.652966-0.99178 1.542768-0.881582 3.030438-1.763164 4.40791-2.699845 0.550989-0.385692 1.267274-0.716285 1.818263-1.101977 0.385692-0.275494 0.716285-0.550989 1.101977-0.826483 1.377472-0.936681 2.644746-1.818263 3.856921-2.754944 0.550989-0.440791 1.212175-0.826483 1.763164-1.267274 0.220395-0.165297 0.440791-0.385692 0.661187-0.606088 1.267274-1.046879 2.42435-2.093757 3.581426-3.140636 0.440791-0.440791 1.046879-0.826483 1.48767-1.267274 0.110198-0.110198 0.165297-0.220395 0.275494-0.330593 1.597867-1.597867 3.085537-3.195735 4.352811-4.848701s0-0.055099 0-0.055099c1.267274-1.597867 2.314153-3.250834 3.250834-4.8487 0.055099-0.110198 0.165297-0.275494 0.275494-0.385693 0.220395-0.385692 0.275494-0.716285 0.440791-1.101977 0.606088-1.267274 1.212175-2.534548 1.597868-3.801822 0.110198-0.275494 0.275494-0.550989 0.330593-0.826483 0.110198-0.275494 0.055099-0.606088 0.165296-0.881582 0.385692-1.432571 0.606088-2.865141 0.716286-4.297712 0-0.330593 0.165297-0.661186 0.165296-0.936681v-0.881582l0.661187-221.497471c0 0.606088-0.110198 1.212175-0.165297 1.818262z" fill="#9CD8FE" p-id="18552"></path><path d="M806.316914 382.924608c-0.110198 1.432571-0.330593 2.865141-0.716286 4.242613l-0.49589 1.708065c-0.440791 1.267274-0.99178 2.534548-1.597867 3.801822-0.220395 0.49589-0.440791 0.99178-0.716285 1.48767-0.936681 1.597867-1.983559 3.250834-3.250834 4.848701 0 0 0 0.055099-0.055099 0.110198-1.267274 1.597867-2.754944 3.195735-4.352811 4.8487-0.550989 0.550989-1.157076 1.046879-1.763164 1.597868-1.157076 1.046879-2.314153 2.093757-3.581426 3.140635-0.771384 0.606088-1.597867 1.212175-2.424351 1.873362-1.212175 0.936681-2.479449 1.873362-3.856921 2.754944-0.936681 0.661186-1.928461 1.267274-2.92024 1.92846-1.432571 0.881582-2.92024 1.818263-4.40791 2.699845-1.101977 0.606088-2.203955 1.267274-3.305933 1.873362-1.652966 0.936681-3.41613 1.818263-5.234392 2.699845-1.157076 0.606088-2.314153 1.157076-3.581427 1.763164-2.093757 0.99178-4.352811 1.983559-6.611865 2.975339-1.101977 0.49589-2.148856 0.99178-3.305932 1.432571-3.581427 1.48767-7.383249 3.030438-11.350368 4.463008-0.550989 0.220395-1.101977 0.385692-1.652967 0.606088-3.691625 1.322373-7.548546 2.644746-11.515664 3.967119-1.322373 0.440791-2.754944 0.881582-4.132416 1.322373-4.022218 1.267274-8.154633 2.534548-12.507444 3.746723-1.322373 0.385692-2.589647 0.771384-3.91202 1.101978-4.958899 1.377472-10.027995 2.699845-15.372586 4.022217-2.479449 0.606088-5.013997 1.157076-7.548545 1.763164-7.82404 1.818263-15.868476 3.581427-24.133307 5.234393l-2.479449 0.49589a809.479589 809.479589 0 0 1-31.516556 5.564986c-10.468786 1.652966-21.102869 3.195735-32.067544 4.573207-1.212175 0.165297-2.479449 0.275494-3.691625 0.440791-6.33637 0.771384-12.72784 1.542768-19.174408 2.203955l-6.115974 0.661186c-7.658743 0.771384-15.372586 1.542768-23.196626 2.203955-0.330593 0-0.606088 0-0.936681 0.055099-6.501667 0.550989-13.058433 1.046879-19.670298 1.542769-1.157076 0.110198-2.369252 0.165297-3.526328 0.220395-13.278828 0.936681-26.722954 1.652966-40.277276 2.203955-1.928461 0.055099-3.91202 0.165297-5.840481 0.220395-4.242613 0.165297-8.540325 0.330593-12.782938 0.440791-2.754944 0.110198-5.564986 0.165297-8.31993 0.275495-3.195735 0.055099-6.446568 0.165297-9.642303 0.220395l-9.8076 0.165297c-2.534548 0-5.069096 0.055099-7.603644 0.055099-3.636526 0-7.217952 0.055099-10.854478 0.055099h-18.568321c-2.534548 0-5.069096 0-7.603644-0.055099-3.581427 0-7.107755-0.110198-10.634083-0.165297-2.699845 0-5.454788-0.110198-8.154633-0.165296-3.471229-0.055099-6.942458-0.165297-10.358588-0.275495-2.865141-0.110198-5.675184-0.165297-8.540326-0.275494-3.140636-0.110198-6.33637-0.220395-9.477006-0.385692-3.250834-0.110198-6.501667-0.275494-9.7525-0.440791l-9.201512-0.49589c-3.361031-0.165297-6.777161-0.330593-10.138193-0.550989-2.975339-0.165297-5.950678-0.385692-8.926017-0.550989-3.471229-0.220395-6.997557-0.440791-10.468786-0.716285l-8.650524-0.661186c-3.581427-0.275494-7.162854-0.550989-10.74428-0.881582-2.865141-0.220395-5.675184-0.49589-8.540325-0.771385-3.581427-0.330593-7.217952-0.661186-10.744281-1.046878-2.810043-0.275494-5.564986-0.550989-8.319929-0.881582-3.636526-0.385692-7.217952-0.771384-10.79938-1.212175-2.644746-0.330593-5.344591-0.606088-7.989336-0.936681l-11.791159-1.48767c-2.369252-0.330593-4.793602-0.606088-7.162854-0.936681-4.9038-0.661186-9.807599-1.377472-14.601201-2.093757-1.432571-0.220395-2.865141-0.385692-4.242613-0.606087-6.446568-0.99178-12.782939-2.038658-19.064211-3.140636-1.48767-0.275494-2.92024-0.550989-4.352811-0.771385-5.234393-0.936681-10.413687-1.928461-15.482783-2.92024-1.873362-0.385692-3.746723-0.771384-5.564986-1.157076-6.942458-1.432571-13.829817-2.92024-20.496781-4.463009-3.140636-0.716285-6.060876-1.48767-9.091314-2.259054-2.038658-0.49589-4.132416-0.99178-6.115975-1.542768-2.865141-0.771384-5.564986-1.542768-8.31993-2.259054-1.818263-0.49589-3.746723-0.99178-5.509887-1.542768-4.242613-1.212175-8.264831-2.479449-12.23195-3.691625-1.212175-0.385692-2.314153-0.771384-3.471229-1.157076a218.742527 218.742527 0 0 1-7.879139-2.699845c-1.377472-0.49589-2.699845-0.99178-4.077317-1.48767-2.203955-0.826483-4.40791-1.652966-6.501667-2.479449-1.377472-0.550989-2.644746-1.046879-3.967119-1.597867-1.983559-0.826483-3.91202-1.597867-5.785382-2.424351-1.267274-0.550989-2.479449-1.101977-3.691624-1.652966-1.818263-0.826483-3.581427-1.708065-5.289492-2.534548-1.101977-0.550989-2.203955-1.046879-3.250833-1.597867-1.763164-0.936681-3.471229-1.873362-5.124196-2.810043-0.826483-0.49589-1.708065-0.936681-2.534548-1.432571-2.203955-1.322373-4.297712-2.589647-6.281271-3.91202l-0.49589-0.330593c-2.093757-1.432571-4.077317-2.865141-5.89558-4.297712-0.550989-0.440791-1.046879-0.881582-1.597867-1.377472-1.212175-0.99178-2.369252-1.983559-3.41613-3.030438-0.606088-0.550989-1.101977-1.101977-1.652966-1.708065-0.881582-0.936681-1.763164-1.818263-2.534549-2.754944l-1.43257-1.763164c-0.716285-0.881582-1.322373-1.818263-1.928461-2.699844-0.385692-0.606088-0.771384-1.212175-1.101977-1.818263-0.550989-0.936681-0.99178-1.873362-1.432571-2.754944-0.275494-0.550989-0.550989-1.157076-0.771384-1.708065-0.385692-0.99178-0.661186-2.038658-0.936681-3.030438-0.110198-0.49589-0.275494-0.99178-0.385692-1.48767-0.275494-1.48767-0.440791-2.975339-0.440791-4.463008L0 599.738675c0 1.48767 0.165297 2.975339 0.440791 4.463008 0.110198 0.49589 0.275494 0.99178 0.385692 1.48767 0.275494 0.99178 0.550989 2.038658 0.936681 3.030438 0.220395 0.550989 0.49589 1.157076 0.771384 1.708065 0.440791 0.936681 0.881582 1.873362 1.432571 2.754944 0.330593 0.606088 0.716285 1.212175 1.101977 1.818263 0.606088 0.881582 1.212175 1.818263 1.928461 2.699844 0.440791 0.606088 0.936681 1.212175 1.432571 1.763164 0.771384 0.936681 1.652966 1.818263 2.534548 2.754944l1.652966 1.652966c1.046879 0.99178 2.203955 1.983559 3.41613 2.975339 0.550989 0.440791 1.046879 0.936681 1.652966 1.377472 1.818263 1.432571 3.801822 2.865141 5.89558 4.297712 0.220395 0.110198 0.440791 0.275494 0.606087 0.385692 1.928461 1.322373 4.022218 2.589647 6.171074 3.856922 0.826483 0.49589 1.708065 0.936681 2.589647 1.43257 1.652966 0.936681 3.305932 1.873362 5.124196 2.754944 1.046879 0.550989 2.148856 1.046879 3.250833 1.597867 1.708065 0.826483 3.471229 1.708065 5.344591 2.534548 1.212175 0.550989 2.42435 1.101977 3.691624 1.652967 1.873362 0.826483 3.801822 1.652966 5.785382 2.42435 1.322373 0.550989 2.644746 1.101977 4.022218 1.597867 2.093757 0.826483 4.297712 1.652966 6.501667 2.47945 1.322373 0.49589 2.644746 0.99178 4.022218 1.487669 2.534548 0.881582 5.234393 1.818263 7.934237 2.699845l3.471229 1.157076c3.91202 1.267274 7.879139 2.479449 12.066654 3.691625h0.165296c1.652966 0.49589 3.471229 0.936681 5.234393 1.432571 2.865141 0.771384 5.620085 1.597867 8.595425 2.369251 2.038658 0.550989 4.187514 1.046879 6.281271 1.542769 2.699845 0.661186 5.289492 1.377472 8.099534 1.983559 0.275494 0.055099 0.606088 0.110198 0.881582 0.220396 6.666964 1.542768 13.554323 3.030438 20.496781 4.463008 0.881582 0.165297 1.652966 0.385692 2.534549 0.550989 0.99178 0.220395 2.038658 0.385692 3.030438 0.550989 5.124195 0.99178 10.24839 1.983559 15.537882 2.92024 1.101977 0.220395 2.093757 0.385692 3.195735 0.606088l1.157076 0.165296c6.226173 1.101977 12.617642 2.148856 19.009111 3.140636 0.220395 0 0.385692 0.055099 0.606088 0.110198 1.212175 0.165297 2.479449 0.330593 3.691624 0.550989 4.848701 0.716285 9.697402 1.432571 14.601202 2.093757 0.661186 0.110198 1.322373 0.220395 1.983559 0.275494l5.124195 0.661187 11.791159 1.487669c1.046879 0.110198 2.093757 0.275494 3.140636 0.385692 1.597867 0.165297 3.250834 0.330593 4.848701 0.550989 3.581427 0.385692 7.162854 0.826483 10.799379 1.212175 1.377472 0.165297 2.699845 0.330593 4.022218 0.440791 1.432571 0.165297 2.865141 0.275494 4.297712 0.385692 3.581427 0.330593 7.162854 0.716285 10.74428 1.046879 1.597867 0.165297 3.140636 0.330593 4.793602 0.440791l3.746724 0.330593c3.581427 0.330593 7.162854 0.606088 10.74428 0.881582 1.818263 0.165297 3.636526 0.330593 5.454789 0.440791 1.046879 0.055099 2.148856 0.165297 3.250833 0.220396 3.471229 0.275494 6.942458 0.49589 10.468786 0.716285 2.038658 0.110198 4.022218 0.275494 6.060876 0.385692l2.810043 0.165297c3.41613 0.220395 6.83226 0.385692 10.24839 0.550989l6.391469 0.330593c0.881582 0 1.763164 0.055099 2.589648 0.110198 3.305932 0.165297 6.611865 0.275494 9.917797 0.440791 2.259054 0.110198 4.463009 0.220395 6.722062 0.275494 0.881582 0 1.763164 0 2.644746 0.110198 2.865141 0.110198 5.785382 0.165297 8.650523 0.275494 2.314153 0.055099 4.573206 0.165297 6.88736 0.220395 1.101977 0 2.203955 0 3.305932 0.055099l8.264831 0.165297c2.148856 0 4.242613 0.110198 6.391469 0.110198h4.242614c2.534548 0 5.069096 0.055099 7.603644 0.055099h22.645637c2.259054 0 4.518108 0 6.777161-0.055099 2.534548 0 5.069096 0 7.603645-0.055099h2.975339c2.259054 0 4.518108-0.110198 6.777162-0.165297 3.250834-0.055099 6.501667-0.110198 9.7525-0.220395 0.936681 0 1.873362 0 2.810043-0.055099 1.763164 0 3.526328-0.110198 5.34459-0.165297 4.297712-0.110198 8.650523-0.275494 12.948236-0.440791 1.267274 0 2.479449-0.055099 3.746723-0.110197 0.716285 0 1.377472-0.110198 2.093757-0.110198 13.554323-0.550989 26.998448-1.322373 40.277277-2.203955 0.606088 0 1.212175-0.055099 1.818263-0.110198 0.606088 0 1.157076-0.110198 1.708065-0.110198 6.777161-0.49589 13.499224-0.99178 20.111088-1.542768h0.385693c7.82404-0.661186 15.592981-1.432571 23.251724-2.203955l6.115975-0.661187c6.501667-0.716285 12.948235-1.432571 19.284606-2.259053l2.865141-0.330594c0.220395 0 0.440791-0.055099 0.716286-0.110197 10.909577-1.377472 21.653857-2.92024 32.067544-4.573207 0.49589-0.055099 0.99178-0.110198 1.432571-0.220395 0.220395 0 0.385692-0.055099 0.606087-0.110198 10.083094-1.597867 19.890693-3.361031 29.422799-5.234393 0.550989-0.110198 1.157076-0.220395 1.708065-0.275494 0.275494 0 0.49589-0.110198 0.771384-0.165297 8.31993-1.652966 16.309267-3.41613 24.133306-5.234393l2.369252-0.49589c1.763164-0.440791 3.471229-0.826483 5.179294-1.267274 5.344591-1.322373 10.413687-2.644746 15.372586-4.022218l1.377472-0.330593c0.881582-0.220395 1.652966-0.49589 2.534548-0.771384 4.297712-1.212175 8.485227-2.479449 12.507444-3.746724 0.826483-0.275494 1.708065-0.49589 2.479449-0.771384 0.550989-0.165297 1.046879-0.385692 1.597868-0.550989 3.967119-1.322373 7.82404-2.644746 11.515664-3.967118 0.440791-0.165297 0.936681-0.330593 1.377472-0.49589 0.110198 0 0.165297-0.055099 0.275494-0.110198 3.967119-1.48767 7.768941-2.975339 11.350368-4.463009 0.220395-0.110198 0.49589-0.220395 0.771385-0.275494 0.881582-0.385692 1.652966-0.771384 2.534548-1.157076 2.259054-0.99178 4.518108-1.983559 6.611865-3.030439 0.440791-0.220395 0.936681-0.385692 1.322373-0.606087 0.771384-0.385692 1.48767-0.771384 2.259053-1.157076 1.763164-0.881582 3.526328-1.818263 5.179295-2.699845 0.550989-0.275494 1.157076-0.550989 1.652966-0.881582 0.606088-0.330593 1.101977-0.661186 1.652966-0.99178 1.542768-0.881582 3.030438-1.763164 4.40791-2.699845 0.550989-0.385692 1.267274-0.716285 1.818263-1.101977 0.385692-0.275494 0.716285-0.550989 1.101977-0.826483 1.377472-0.936681 2.644746-1.818263 3.856921-2.754944 0.550989-0.440791 1.212175-0.826483 1.763164-1.267274 0.220395-0.165297 0.440791-0.385692 0.661187-0.606088 1.267274-1.046879 2.42435-2.093757 3.581426-3.140635 0.440791-0.440791 1.046879-0.826483 1.48767-1.267275 0.110198-0.110198 0.165297-0.220395 0.275494-0.330593 1.597867-1.597867 3.085537-3.195735 4.352811-4.848701s0-0.055099 0-0.055099c1.267274-1.597867 2.314153-3.250834 3.250834-4.8487 0.055099-0.110198 0.165297-0.275494 0.275494-0.385693 0.220395-0.385692 0.275494-0.716285 0.440791-1.101977 0.606088-1.267274 1.212175-2.534548 1.597868-3.801822 0.110198-0.275494 0.275494-0.550989 0.330593-0.826483 0.110198-0.275494 0.055099-0.606088 0.165296-0.881582 0.385692-1.432571 0.606088-2.865141 0.716286-4.297712 0-0.330593 0.165297-0.661186 0.165296-0.936681v-0.881582l0.661187-221.497471c0 0.606088-0.110198 1.212175-0.165297 1.818262z" fill="#9CD8FE" p-id="18553"></path><path d="M806.316914 120.764168c-2.259054-30.965567-43.362813-61.876035-123.090884-85.458353-160.282623-47.385031-415.335308-46.999339-569.722351 0.716286C38.569211 59.218726 1.432571 89.302711 0.99178 119.551993c0 0.385692 0 0.716285 0.110197 1.101977 0 0.110198 0.055099 0.275494 0.110198 0.385692s0 0.165297 0.055099 0.275495c0-0.110198 0-0.165297-0.055099-0.275495 0.385692 14.766498 9.532105 29.532996 27.549437 43.583209 0.606088 0.385692 1.101977 0.716285 1.708065 1.046879 0.826483 0.49589 1.708065 0.936681 2.534548 1.432571 1.652966 0.936681 3.361031 1.873362 5.124195 2.810042 1.046879 0.550989 2.148856 1.046879 3.250834 1.597867 1.708065 0.826483 3.471229 1.708065 5.289492 2.534549 1.212175 0.550989 2.42435 1.101977 3.691624 1.652966 1.873362 0.826483 3.801822 1.652966 5.785382 2.42435 1.322373 0.550989 2.644746 1.046879 3.967119 1.597868 2.093757 0.826483 4.297712 1.652966 6.501667 2.479449 1.322373 0.49589 2.644746 0.99178 4.077317 1.487669 2.534548 0.881582 5.234393 1.763164 7.879138 2.699845 1.157076 0.385692 2.314153 0.771384 3.526328 1.157077 3.91202 1.267274 7.989337 2.479449 12.23195 3.746723 1.763164 0.49589 3.691625 0.99178 5.509888 1.542768 2.754944 0.771384 5.454788 1.542768 8.31993 2.259054 1.983559 0.49589 4.077317 0.99178 6.115974 1.542769 3.030438 0.771384 5.950678 1.48767 9.091315 2.259054 6.666964 1.542768 13.554323 3.030438 20.496781 4.463008l5.564986 1.157077c5.069096 0.99178 10.24839 1.983559 15.482783 2.92024 1.432571 0.275494 2.865141 0.550989 4.352811 0.826483 6.226173 1.101977 12.617642 2.148856 19.009111 3.140636 1.432571 0.220395 2.865141 0.440791 4.242614 0.606087 4.848701 0.716285 9.697402 1.432571 14.6563 2.093758 2.369252 0.330593 4.738503 0.606088 7.162854 0.93668l11.73606 1.48767c2.644746 0.330593 5.289492 0.606088 7.989336 0.936681 3.581427 0.385692 7.162854 0.826483 10.799379 1.212175 2.754944 0.275494 5.564986 0.606088 8.31993 0.881582 3.581427 0.330593 7.162854 0.716285 10.744281 1.046879 2.865141 0.275494 5.675184 0.49589 8.540325 0.771384 3.581427 0.330593 7.162854 0.606088 10.74428 0.881582l8.705622 0.661186c3.471229 0.275494 6.942458 0.49589 10.468786 0.716286 2.975339 0.165297 5.895579 0.385692 8.926018 0.550988 3.361031 0.220395 6.722063 0.385692 10.083094 0.550989l9.25661 0.49589c3.250834 0.165297 6.501667 0.275494 9.752501 0.440791 3.140636 0.110198 6.33637 0.275494 9.477006 0.385692 2.865141 0.110198 5.675184 0.165297 8.540326 0.275494 3.471229 0.110198 6.942458 0.220395 10.358588 0.275495l8.154633 0.165296 10.634083 0.165297c2.534548 0 5.069096 0 7.603644 0.055099h18.568321c3.636526 0 7.273051 0 10.854478-0.055099 2.534548 0 5.069096 0 7.603644-0.110198 3.305932 0 6.556766-0.110198 9.862698-0.165296 3.195735-0.055099 6.446568-0.110198 9.642303-0.220396 2.754944-0.055099 5.564986-0.165297 8.31993-0.275494 4.297712-0.110198 8.540325-0.275494 12.782939-0.440791 1.983559-0.055099 3.91202-0.165297 5.84048-0.220396 13.554323-0.606088 26.998448-1.322373 40.277277-2.203955 1.157076-0.110198 2.369252-0.165297 3.526328-0.220395 6.611865-0.49589 13.168631-0.99178 19.670298-1.542769 0.330593 0 0.606088 0 0.93668-0.055098 7.82404-0.661186 15.537882-1.432571 23.196626-2.203955l6.115975-0.661187c6.446568-0.716285 12.838038-1.432571 19.174408-2.203955 1.212175-0.165297 2.479449-0.275494 3.691625-0.440791a1044.096102 1044.096102 0 0 0 34.161301-4.903799c10.083094-1.597867 19.835594-3.361031 29.422799-5.234393l2.479449-0.49589c8.31993-1.652966 16.309267-3.41613 24.133306-5.234393 2.534548-0.606088 5.069096-1.157076 7.548546-1.763164 5.344591-1.322373 10.413687-2.644746 15.372586-4.022218 1.322373-0.385692 2.589647-0.771384 3.91202-1.101977 4.297712-1.212175 8.485227-2.479449 12.507444-3.746724l4.132415-1.322373c3.967119-1.322373 7.82404-2.644746 11.515665-3.967119 0.550989-0.220395 1.101977-0.385692 1.652966-0.606087 3.967119-1.48767 7.768941-2.975339 11.350368-4.463009 1.157076-0.49589 2.203955-0.99178 3.305933-1.432571 2.259054-0.99178 4.518108-1.983559 6.611864-2.975339 1.212175-0.606088 2.369252-1.157076 3.581427-1.763164 1.818263-0.881582 3.526328-1.818263 5.234393-2.699845 1.157076-0.606088 2.259054-1.267274 3.305933-1.873361 1.542768-0.881582 3.030438-1.763164 4.463008-2.699845 0.99178-0.606088 1.983559-1.267274 2.920241-1.928461 1.101977-0.716285 2.093757-1.48767 3.085536-2.203955 0.275494-0.165297 0.550989-0.385692 0.771385-0.550988 0.826483-0.606088 1.652966-1.212175 2.42435-1.873362 1.267274-1.046879 2.42435-2.093757 3.581427-3.140636 0.606088-0.550989 1.212175-1.046879 1.763164-1.597867 1.597867-1.597867 3.085537-3.195735 4.352811-4.848701 0 0 0-0.055099 0.055099-0.110198 1.267274-1.597867 2.314153-3.195735 3.250833-4.848701 0.275494-0.49589 0.49589-0.99178 0.716286-1.487669 0.606088-1.267274 1.157076-2.534548 1.597867-3.801823 0.220395-0.550989 0.330593-1.157076 0.49589-1.708065 0.385692-1.432571 0.606088-2.865141 0.716285-4.242613v-0.110198c2.314153 31.29616-35.042883 62.702518-112.677196 86.725627-154.442142 47.715624-409.494827 48.101316-569.667252 0.716286C42.315935 196.635317 1.597867 165.063662 0.716285 133.492008c0-0.110198-0.055099-0.220395-0.110197-0.330593L0 337.633334c0 1.48767 0.165297 2.975339 0.440791 4.463009 0.110198 0.49589 0.275494 0.99178 0.385692 1.487669 0.275494 0.99178 0.550989 2.038658 0.936681 3.030438 0.220395 0.550989 0.49589 1.157076 0.771384 1.708065 0.440791 0.936681 0.881582 1.873362 1.432571 2.754944 0.330593 0.606088 0.716285 1.212175 1.101977 1.818263 0.606088 0.881582 1.212175 1.818263 1.928461 2.699845 0.440791 0.606088 0.936681 1.212175 1.432571 1.763163 0.771384 0.936681 1.652966 1.818263 2.534548 2.754944 0.550989 0.550989 1.046879 1.101977 1.652966 1.652966 1.046879 0.99178 2.203955 1.983559 3.41613 2.97534 0.550989 0.440791 1.046879 0.936681 1.652966 1.377471 1.818263 1.432571 3.801822 2.865141 5.89558 4.297712 0.220395 0.110198 0.440791 0.275494 0.606087 0.385693 1.928461 1.267274 3.967119 2.589647 6.171074 3.856921 0.826483 0.49589 1.708065 0.936681 2.589647 1.43257 1.652966 0.936681 3.305932 1.873362 5.124196 2.754944 1.046879 0.550989 2.148856 1.046879 3.250833 1.597867 1.708065 0.826483 3.471229 1.708065 5.344591 2.534549 1.212175 0.550989 2.42435 1.101977 3.691624 1.652966 1.873362 0.826483 3.801822 1.652966 5.785382 2.42435 1.322373 0.550989 2.644746 1.101977 4.022218 1.597868 2.093757 0.826483 4.297712 1.652966 6.501667 2.479449 1.322373 0.49589 2.644746 0.99178 4.022218 1.487669 2.534548 0.881582 5.234393 1.818263 7.934237 2.699845l3.471229 1.157077c3.91202 1.267274 7.879139 2.479449 12.066654 3.691624h0.165296c1.652966 0.49589 3.471229 0.936681 5.234393 1.432571 2.865141 0.771384 5.620085 1.597867 8.595425 2.369251 2.038658 0.550989 4.187514 1.046879 6.281271 1.542769 2.699845 0.661186 5.289492 1.322373 8.099534 1.983559 0.275494 0.055099 0.606088 0.110198 0.881582 0.220396 6.666964 1.542768 13.554323 3.030438 20.496781 4.463009 0.881582 0.165297 1.652966 0.385692 2.534549 0.550988 0.99178 0.220395 2.038658 0.385692 3.030438 0.550989 5.124195 0.99178 10.303489 1.983559 15.537882 2.92024 1.101977 0.220395 2.093757 0.440791 3.195735 0.606088l1.157076 0.165297c6.226173 1.101977 12.617642 2.148856 19.009111 3.140635 0.220395 0 0.385692 0.055099 0.606088 0.110198 1.212175 0.165297 2.479449 0.330593 3.691624 0.550989 4.848701 0.716285 9.697402 1.432571 14.601202 2.093757 0.661186 0.110198 1.322373 0.220395 1.983559 0.275494l5.124195 0.661187 11.736061 1.487669c1.046879 0.110198 2.093757 0.275494 3.140635 0.385693 1.597867 0.165297 3.250834 0.330593 4.848701 0.550988 3.581427 0.385692 7.162854 0.826483 10.799379 1.212175 1.377472 0.165297 2.699845 0.330593 4.022218 0.440791 1.432571 0.165297 2.865141 0.275494 4.297712 0.385693 3.581427 0.330593 7.162854 0.716285 10.744281 1.046878 1.597867 0.165297 3.195735 0.330593 4.793602 0.440791 1.212175 0.110198 2.479449 0.220395 3.746723 0.275495 3.581427 0.330593 7.162854 0.606088 10.74428 0.881581 1.818263 0.165297 3.636526 0.330593 5.454789 0.440791 1.046879 0.055099 2.148856 0.165297 3.250833 0.220396 3.471229 0.275494 6.942458 0.49589 10.468786 0.716285 2.038658 0.110198 4.022218 0.275494 6.060876 0.385692l2.810043 0.165297c3.41613 0.220395 6.83226 0.385692 10.24839 0.550989 2.148856 0.110198 4.242613 0.275494 6.39147 0.330593 0.881582 0 1.763164 0.055099 2.589647 0.110198 3.305932 0.165297 6.611865 0.275494 9.917797 0.440791 2.259054 0.110198 4.463009 0.220395 6.722062 0.275494 0.881582 0 1.763164 0 2.644746 0.110198 2.865141 0.110198 5.785382 0.165297 8.650523 0.275494 2.314153 0.055099 4.573206 0.165297 6.88736 0.220396 1.101977 0 2.203955 0 3.305932 0.055099l8.264831 0.165296c2.148856 0 4.242613 0.110198 6.391469 0.110198h4.242614c2.534548 0 5.069096 0 7.603644 0.055099h22.645637c2.259054 0 4.518108 0 6.777162-0.055099 2.534548 0 5.069096 0 7.603644-0.055099h2.975339c2.259054 0 4.518108-0.110198 6.777162-0.165297 3.250834-0.055099 6.501667-0.110198 9.807599-0.220395 0.936681 0 1.873362 0 2.810043-0.055099 1.763164 0 3.526328-0.110198 5.34459-0.165296 4.352811-0.110198 8.650523-0.275494 12.948236-0.440791 1.267274 0 2.534548-0.055099 3.746723-0.110198 0.716285 0 1.377472-0.110198 2.093757-0.110198 13.554323-0.550989 26.998448-1.322373 40.277277-2.203955 0.606088 0 1.212175 0 1.818263-0.110198 0.606088 0 1.157076-0.110198 1.763164-0.110197 6.777161-0.49589 13.444125-0.99178 20.111088-1.542769h0.385692c7.82404-0.661186 15.592981-1.432571 23.251725-2.203955l6.115975-0.661186c6.501667-0.716285 12.948235-1.432571 19.284606-2.259054l2.865141-0.330593c0.220395 0 0.440791-0.055099 0.716285-0.110198 10.909577-1.377472 21.653857-2.92024 32.067545-4.573207 0.49589-0.055099 0.99178-0.110198 1.487669-0.220395 0.220395 0 0.385692-0.055099 0.606088-0.110198 10.083094-1.597867 19.835594-3.361031 29.422798-5.234393 0.550989-0.110198 1.157076-0.220395 1.708065-0.275494 0.275494 0 0.49589-0.110198 0.771385-0.165297 8.264831-1.652966 16.309267-3.41613 24.133306-5.234393l2.369252-0.49589c1.763164-0.440791 3.471229-0.826483 5.179294-1.267274 5.344591-1.322373 10.413687-2.644746 15.372586-4.022217l1.377471-0.330594c0.881582-0.275494 1.652966-0.49589 2.534549-0.771384 4.297712-1.212175 8.485227-2.479449 12.507444-3.746723 0.826483-0.275494 1.708065-0.49589 2.479449-0.771385 0.550989-0.165297 1.046879-0.385692 1.597867-0.550988 3.967119-1.322373 7.82404-2.644746 11.515665-3.967119 0.440791-0.165297 0.936681-0.330593 1.432571-0.49589 0.110198 0 0.165297-0.055099 0.275494-0.110198 3.967119-1.48767 7.768941-2.975339 11.350368-4.463009 0.220395-0.110198 0.49589-0.220395 0.716285-0.275494 0.881582-0.385692 1.708065-0.771384 2.534549-1.157076 2.259054-0.99178 4.518108-1.983559 6.611864-2.975339 0.440791-0.220395 0.936681-0.385692 1.322373-0.606088 0.771384-0.385692 1.48767-0.771384 2.259054-1.157076 1.763164-0.881582 3.526328-1.818263 5.179294-2.699845 0.550989-0.275494 1.157076-0.550989 1.652966-0.881582 0.606088-0.330593 1.101977-0.661186 1.652967-0.99178 1.542768-0.881582 3.030438-1.763164 4.40791-2.699845 0.606088-0.385692 1.267274-0.716285 1.818262-1.101977 0.385692-0.275494 0.716285-0.550989 1.101978-0.826483 1.377472-0.936681 2.644746-1.818263 3.856921-2.754944 0.550989-0.440791 1.212175-0.826483 1.763164-1.267274 0.275494-0.220395 0.440791-0.385692 0.661186-0.606088 1.267274-1.046879 2.42435-2.093757 3.581427-3.140635 0.440791-0.440791 1.046879-0.826483 1.48767-1.267274 0.110198-0.110198 0.165297-0.220395 0.275494-0.330594 1.652966-1.597867 3.085537-3.195735 4.352811-4.848701s0 0 0-0.055098c1.267274-1.597867 2.314153-3.250834 3.250834-4.848701 0.055099-0.110198 0.165297-0.275494 0.275494-0.385692 0.220395-0.385692 0.275494-0.716285 0.440791-1.101978 0.606088-1.267274 1.157076-2.534548 1.597867-3.801822 0.110198-0.275494 0.275494-0.550989 0.330594-0.826483 0.110198-0.275494 0.055099-0.606088 0.165296-0.881582 0.385692-1.432571 0.606088-2.865141 0.716286-4.297712 0-0.330593 0.165297-0.661186 0.165296-0.936681v-0.881582l0.661187-221.497471c0 0.606088-0.110198 1.157076-0.165297 1.763164z" fill="#9CD8FE" p-id="18554"></path><path d="M1065.061223 470.586915v301.721431c0 18.07243-4.297712 36.089762-12.948235 53.996896-8.650523 17.962233-19.890693 35.263279-33.885807 52.123534-13.940015 16.805156-29.918688 32.728731-47.825822 47.770724-17.962233 15.041992-36.144861 28.431019-54.547885 40.167078-18.458123 11.791159-36.365256 21.54366-53.7765 29.312601-17.411244 7.768941-32.673632 13.113532-45.787164 16.033772l-6.226173 1.101978-5.675184-1.101978c-13.444125-2.92024-29.037106-8.264831-46.778943-16.033772-17.741837-7.768941-36.19996-17.576541-55.319269-29.312601a519.593396 519.593396 0 0 1-56.366148-40.167078 387.598535 387.598535 0 0 1-49.36859-47.770724c-14.491004-16.860255-26.171965-34.161302-35.153082-52.123534-8.981116-17.907134-13.444125-35.869367-13.444125-53.996896V470.586915l21.213066-3.250833 237.861837-72.069327 242.545241 72.069327 15.537882 3.250833z" fill="#0080FF" p-id="18555"></path><path d="M810.063637 1023.944901l-7.658743-1.432571c-14.380806-3.085537-30.855369-8.705622-49.148195-16.750057-18.07243-7.879139-37.136641-18.017332-56.696741-30.028886a531.175179 531.175179 0 0 1-57.523224-40.993562c-18.843815-15.317487-35.924465-31.847149-50.746062-49.093096-15.041992-17.521442-27.38414-35.814268-36.640751-54.382588-9.697402-19.284606-14.601201-39.1202-14.601202-58.900696V461.220107l29.753392-4.573207 240.286187-72.785611 245.245085 72.895809 23.802714 5.013998v310.647448c0 19.670298-4.738503 39.450793-13.995114 58.735399-8.981116 18.623419-20.827374 36.916245-35.318378 54.382588-14.325707 17.301046-30.910468 33.830708-49.258393 49.148195-18.237727 15.262388-36.971344 29.092205-55.704961 40.993562-18.898914 12.066653-37.467234 22.149747-55.209071 30.083985-17.962233 8.044436-34.051104 13.664521-47.880921 16.694959l-8.705622 1.542768z m-251.085566-543.880979v292.244424c0 16.309267 4.132416 32.78383 12.287049 49.037998 8.485227 16.970453 19.780496 33.775609 33.665411 49.86448 13.995114 16.254168 30.194183 31.902248 47.991119 46.393251 18.07243 14.711399 36.585652 27.935129 55.153972 39.285497 18.678518 11.515665 36.861146 21.102869 53.996896 28.596315 16.970453 7.438348 32.012445 12.562543 44.685187 15.317487l3.41613 0.661187 4.242613-0.716286c11.846258-2.644746 26.557657-7.82404 43.142418-15.207289 16.750058-7.493447 34.381697-17.080651 52.34393-28.541216 17.907134-11.405467 35.869367-24.629196 53.390808-39.285497 17.301046-14.491004 32.949126-30.083985 46.44835-46.338152 13.333927-16.088871 24.243504-32.838929 32.398138-49.864481 7.879139-16.309267 11.846258-32.894027 11.846258-49.203294V479.512933l-7.658744-1.652966-239.349506-71.132646-236.20887 71.463239-11.846258 1.818263z" fill="#FFFFFF" p-id="18556"></path><path d="M648.403542 524.583811h73.612095v18.788716h-73.612095V524.583811z m18.347925 147.664981h55.26417v18.788716h-55.26417V672.248792z m221.993361 0h55.26417v18.788716H888.744828V672.248792z m0-147.664981h73.612095v18.788716H888.744828V524.583811z m-240.341286 295.164665h73.612095v18.788716h-73.612095v-18.788716z m240.341286 0h73.612095v18.788716H888.744828v-18.788716z" fill="#FFFFFF" p-id="18557"></path><path d="M648.403542 543.317428h18.347925v55.26417h-18.347925V543.317428z m147.830278 0h18.347925v55.26417h-18.347925V543.317428z m147.775178 0h18.347925v55.26417h-18.347925V543.317428z m-295.605456 221.166878h18.347925v55.26417h-18.347925v-55.26417z m295.605456 0h18.347925v55.26417h-18.347925v-55.26417z m-147.775178 0h18.347925v55.26417h-18.347925v-55.26417z m55.649862-100.059554c0 25.676075-37.301937 81.160641-46.44835 81.160641s-46.44835-55.484566-46.448351-81.160641 20.827374-46.44835 46.448351-46.44835 46.44835 20.827374 46.44835 46.44835z" fill="#FFFFFF" p-id="18558"></path></svg>