<?xml version="1.0" standalone="no"?><!DOCTYPE svg PUBLIC "-//W3C//DTD SVG 1.1//EN" "http://www.w3.org/Graphics/SVG/1.1/DTD/svg11.dtd"><svg t="1699713643658" class="icon" viewBox="0 0 1024 1024" version="1.1" xmlns="http://www.w3.org/2000/svg" p-id="85608" xmlns:xlink="http://www.w3.org/1999/xlink" width="200" height="200"><path d="M483.150102 4.148068c180.618847-3.037288 279.391458 58.328949 376.593356 136.434983 28.832542 23.165831 45.147119 58.446102 71.732067 83.655593l-0.993627 1.991593-102.616949 52.77939c-53.490983-94.264407-242.878915-196.499525-405.486644-150.371796a462.713492 462.713492 0 0 0-117.560407 49.794169l-60.771796-64.737627c-6.573559-6.56922-20.440949-15.542237-15.941424-23.899119l40.847186-24.897085a609.700881 609.700881 0 0 1 94.646238-39.836203c26.302915-8.942644 55.660475-12.583051 84.683932-17.924339z m-26.901695 1015.790644c-57.829966 0.867797-114.310508-23.087729-155.418034-42.821424-140.561356-67.462508-231.332881-172.986576-280.949153-331.628474-46.188475-147.690305 5.141695-317.166644 65.757288-408.306983 15.568271-23.430508 30.850169-51.794441 52.801085-68.716475h1.991593l77.711187 82.657627-3.987526 3.983186-28.888949 37.844611a477.35322 477.35322 0 0 0-53.80339 117.512678c-10.895186 35.314983-18.51878 89.816949-10.960271 133.449762 5.467119 31.557424 5.106983 56.979525 13.949831 83.651255 35.853017 108.188203 101.397695 181.907525 192.277695 235.025356 24.189831 14.140746 54.141831 24.215864 82.692339 32.863457l46.826305 9.979661v114.527458z m112.579254 0l0.997966-116.514712c47.568271 0.134508 96.325424-23.916475 128.516339-42.825763 108.63078-63.783051 174.557288-148.237017 204.235932-291.787932 8.556475-41.380881 5.093966-102.096271-4.981152-138.413559l-14.943458-51.785763 102.616949-52.77939c12.123119 31.362169 20.527729 65.718237 28.893288 101.579932 13.884746 59.574237 7.584542 148.39322-6.972745 200.170306-44.140475 156.906305-122.359322 263.406644-252.060204 333.620067-49.45139 26.754169-114.050169 57.955797-186.298576 58.736814z m180.328136-673.210576c111.021559-2.881085 79.555254 158.147254-21.916204 115.521084l-139.480949 100.581966c0.525017 42.955932-42.817085 77.667797-86.675525 57.760543-36.477831-16.548881-26.550237-29.426983-37.857627-53.777356l-164.386712-57.760542c-37.258847 48.097627-127.258034-7.12461-98.629424-69.710102 26.901695-58.832271 120.402441-44.691525 118.558373 32.863457l157.409627 55.76895a60.138305 60.138305 0 0 1 97.627119-3.983187l125.531118-92.615593c-15.824271-57.586983 22.762305-81.885288 49.820204-84.64922z m-266.005695 1.991593c32.880814-5.97478 62.533424 11.255322 71.732067 47.802576a54.727593 54.727593 0 0 1-1.991593 33.844068c1.496949 0.494644 58.107661 34.711864 60.771797 41.823458l-32.876475 23.903457-51.807457-34.855051c-26.146712 19.829153-48.388339 11.376814-70.725424-0.997966l-33.874441 28.880271-42.838779-14.939118c17.933017-16.262508 54.298034-47.802576 53.803389-48.796204-11.966915-48.778847 27.882305-71.185356 47.806916-76.665491z m269.016949 80.666034c22.050712 7.315525 36.881356-28.880271 13.94983-40.829831-30.893559-10.24-44.127458 30.824136-13.971525 40.829831z m-500.128543 13.941152c25.569627-6.304542 37.193763 39.172339 6.972746 41.827797-26.237831 2.317017-34.143458-35.128407-6.99444-41.827797z m430.388068 73.697627q25.903729 17.421017 51.807458 34.855051c12.973559-3.618712 24.576-13.702508 44.834712-9.979661 40.634576 7.502102 70.616949 58.637017 40.847186 98.590373-26.901695 36.087322-89.864678 28.20339-106.604474-11.949559-5.640678-13.507254-0.04339-37.063593-4.981153-46.808949l-58.780203-39.831865v-0.997966z m-367.624678 15.932746l41.845153 15.932746-6.977085 7.966373-38.851254 33.844068c24.536949 79.338305-62.984678 118.987932-104.608543 64.733288-29.505085-38.44339-5.362983-92.07322 36.859662-100.586305 16.922034-3.406102 29.444339 3.553627 40.847186 5.974779z m205.233899 9.979661c-26.402712 9.458983-16.440407 48.301559 10.960271 41.827797s15.442441-51.299797-10.981966-41.849492z" fill="#1296db" p-id="85609"></path></svg>