<?xml version="1.0" standalone="no"?><!DOCTYPE svg PUBLIC "-//W3C//DTD SVG 1.1//EN" "http://www.w3.org/Graphics/SVG/1.1/DTD/svg11.dtd"><svg t="1719540659582" class="icon" viewBox="0 0 1122 1024" version="1.1" xmlns="http://www.w3.org/2000/svg" p-id="8771" xmlns:xlink="http://www.w3.org/1999/xlink" width="219.140625" height="200"><path d="M907.134981 874.377078H586.807003a33.972354 33.972354 0 0 1-34.5747-33.370007V171.558943a34.092824 34.092824 0 0 1 34.5747-33.490477h483.202527a34.092824 34.092824 0 0 1 34.574701 33.490477v669.448128a33.972354 33.972354 0 0 1-34.574701 33.370007h-32.647191" fill="#F6F6F6" p-id="8772"></path><path d="M907.134981 856.306677v36.140803H586.807003a52.042755 52.042755 0 0 1-52.645102-51.440409V171.558943A52.163225 52.163225 0 0 1 586.807003 120.479942h483.202527a52.163225 52.163225 0 0 1 52.645102 51.560878v668.966251a52.042755 52.042755 0 0 1-52.645102 51.440409h-32.647191v-36.140803h32.647191a16.022422 16.022422 0 0 0 16.5043-15.299606V171.558943A16.022422 16.022422 0 0 0 1070.00953 156.620745H586.807003a15.901953 15.901953 0 0 0-16.504299 15.420075v668.966251a15.901953 15.901953 0 0 0 16.504299 15.299606z" fill="#2D2D2D" p-id="8773"></path><path d="M720.046095 344.914325H585.843249a34.454232 34.454232 0 0 1 0-68.787994h134.202846a34.454232 34.454232 0 0 1 0 68.787994z m0 137.455518H585.843249a34.454232 34.454232 0 0 1 0-68.787994h134.202846a34.454232 34.454232 0 0 1 0 68.787994z m0 137.455518H585.843249a34.454232 34.454232 0 0 1 0-68.787994h134.202846a34.454232 34.454232 0 0 1 0 68.787994z m0 137.455518H585.843249a34.454232 34.454232 0 0 1 0-68.787994h134.202846a34.454232 34.454232 0 0 1 0 68.787994z m201.304268-412.366554h-67.101423a34.454232 34.454232 0 0 1 0-68.787994h67.101423a34.454232 34.454232 0 0 1 0 68.787994z m0 137.455518h-67.101423a34.454232 34.454232 0 0 1 0-68.787994h67.101423a34.454232 34.454232 0 0 1 0 68.787994z m0 137.455518h-67.101423a34.454232 34.454232 0 0 1 0-68.787994h67.101423a34.454232 34.454232 0 0 1 0 68.787994z m0 137.455518h-67.101423a34.454232 34.454232 0 0 1 0-68.787994h67.101423a34.454232 34.454232 0 0 1 0 68.787994z" fill="#D0E6FF" p-id="8774"></path><path d="M597.528775 7.961578a33.008599 33.008599 0 0 0-27.828418-7.34863l-542.112035 102.39894A33.972354 33.972354 0 0 0 0.000843 136.622834v750.885403a33.972354 33.972354 0 0 0 27.587479 33.490476l542.112035 102.39894a36.140802 36.140802 0 0 0 6.264406 0 33.972354 33.972354 0 0 0 33.851885-34.092823V34.223894A33.731415 33.731415 0 0 0 597.528775 7.961578z" fill="#2589FF" p-id="8775"></path><path d="M463.20546 633.076988L354.060237 508.39122l110.349916-142.033353A34.646982 34.646982 0 0 0 409.596603 323.952659L307.67954 455.38471l-86.135579-98.423451a34.490372 34.490372 0 0 0-51.922286 45.416941l94.929841 108.422407L168.657921 634.64309a34.454232 34.454232 0 0 0 54.211203 42.405208l88.063088-113.241181 100.350962 114.686813a34.490372 34.490372 0 1 0 51.922286-45.416942z" fill="#FAFAFA" p-id="8776"></path></svg>