<?xml version="1.0" standalone="no"?><!DOCTYPE svg PUBLIC "-//W3C//DTD SVG 1.1//EN" "http://www.w3.org/Graphics/SVG/1.1/DTD/svg11.dtd"><svg t="1695822202255" class="icon" viewBox="0 0 1024 1024" version="1.1" xmlns="http://www.w3.org/2000/svg" p-id="7457" xmlns:xlink="http://www.w3.org/1999/xlink" width="200" height="200"><path d="M635.089455 498.315636a20.48 20.48 0 0 0-20.48-20.48h-81.92v-81.92a20.48 20.48 0 0 0-40.96 0v81.92h-81.92a20.48 20.48 0 0 0 0 40.96h81.92v81.92a20.48 20.48 0 0 0 40.96 0v-81.92h81.92a20.48 20.48 0 0 0 20.48-20.48z" fill="#F48C45" p-id="7458"></path><path d="M512 0C229.236364 0 0 229.236364 0 512s229.236364 512 512 512 512-229.236364 512-512S794.763636 0 512 0z m33.838545 764.625455a53.410909 53.410909 0 0 1-75.86909 0l-219.578182-221.649455c-63.092364-60.811636-70.074182-161.303273-13.474909-229.911273 58.693818-71.121455 168.145455-76.986182 238.336-17.198545l32.651636 27.787636 32.628364-27.787636c70.190545-59.787636 179.642182-53.899636 238.336 17.198545 52.340364 63.418182 50.222545 154.065455-0.256 215.458909l-0.418909-0.023272c-22.900364 0-45.102545 8.192-62.580364 23.04l-0.116364 0.116363-0.116363-0.116363a96.581818 96.581818 0 0 0-62.580364-23.04c-26.135273 0-49.92 10.402909-66.978909 29.277091a92.951273 92.951273 0 0 0 4.282182 129.582545l16.128 16.290909-60.392728 60.974546z m280.48291-91.671273L733.323636 766.836364a25.088 25.088 0 0 1-35.653818 0l-92.997818-93.882182a73.076364 73.076364 0 0 1-3.630545-101.445818c26.088727-28.881455 71.447273-29.602909 101.073454-4.352l13.405091 11.403636 13.405091-11.403636c29.626182-25.227636 74.984727-24.529455 101.073454 4.352 26.647273 29.509818 24.250182 74.519273-3.67709 101.445818z" fill="#F48C45" p-id="7459"></path></svg>