<?xml version="1.0" standalone="no"?><!DOCTYPE svg PUBLIC "-//W3C//DTD SVG 1.1//EN" "http://www.w3.org/Graphics/SVG/1.1/DTD/svg11.dtd"><svg t="1695822279871" class="icon" viewBox="0 0 1024 1024" version="1.1" xmlns="http://www.w3.org/2000/svg" p-id="8712" xmlns:xlink="http://www.w3.org/1999/xlink" width="200" height="200"><path d="M240 48h672a64 64 0 0 1 64 64v48H352a48 48 0 0 1-48-48 64 64 0 0 0-64-64z" fill="#E9D6BB" p-id="8713"></path><path d="M784 976H176V112a64 64 0 0 1 64-64h672a64 64 0 0 0-64 64v800a64 64 0 0 1-64 64z" fill="#F1DDC1" p-id="8714"></path><path d="M784 976H112a64 64 0 0 1-64-64v-48h624a48 48 0 0 1 48 48 64 64 0 0 0 64 64z" fill="#F9E8D1" p-id="8715"></path><path d="M512 304l-90.178-64.412A52.114 52.114 0 0 1 400 197.182v-1.072A52.11 52.11 0 0 1 452.11 144a52.11 52.11 0 0 1 43.358 23.2L512 192l16.53-24.8A52.11 52.11 0 0 1 571.888 144 52.11 52.11 0 0 1 624 196.11v1.072a52.114 52.114 0 0 1-21.822 42.4z" fill="#DE5540" p-id="8716"></path><path d="M336 368h400v32H336zM272 368h32v32h-32zM336 464h400v32H336zM272 464h32v32h-32zM336 560h368v32H336zM272 560h32v32h-32zM336 656h320v32H336zM272 656h32v32h-32zM336 752h304v32H336zM272 752h32v32h-32z" fill="#D8C6AD" p-id="8717"></path><path d="M917.338 319.436l-224.416 378.52 54.276 31.94 224.416-378.52a31.334 31.334 0 0 0-11.108-43 31.584 31.584 0 0 0-43.168 11.06z" fill="#348ED8" p-id="8718"></path><path d="M692.922 697.956L688 768l59.198-38.104zM893.07 360.046l16.224-27.584 54.286 31.928-16.224 27.584z" fill="#426887" p-id="8719"></path><path d="M128 208h224v32H128zM32 208h64v32H32zM106.438 92.332l11.006-30.046L357.476 150.22l-11.008 30.046zM26.486 63.01l11.008-30.046 48.006 17.586-11.008 30.046zM113.702 353.042l264.764-96.994 11.006 30.046-264.76 96.994zM26.4 385.032l64.01-23.448 11.006 30.046-64.008 23.448zM672 208h224v32H672zM928 208h64v32h-64zM666.544 150.494l144.02-52.76 11.006 30.044-144.02 52.76zM634.34 285.816l11.008-30.046 160.02 58.622-11.006 30.048z" fill="#FFB431" p-id="8720"></path><path d="M832 912a48 48 0 0 1-96 0 64.072 64.072 0 0 0-64-64H192V464H160v384H48a16 16 0 0 0-16 16v48a80.09 80.09 0 0 0 80 80h672a80.09 80.09 0 0 0 80-80v-80h-32zM176 960H112a48.056 48.056 0 0 1-48-48v-32h608a32.038 32.038 0 0 1 32 32 79.584 79.584 0 0 0 16.038 48zM416 196.112v1.072a36.184 36.184 0 0 0 15.124 29.384L512 284.338l80.878-57.77A36.188 36.188 0 0 0 608 197.184v-1.072a36.112 36.112 0 0 0-66.158-20.032l-16.53 24.8a16 16 0 0 1-26.624 0l-16.53-24.8a36.154 36.154 0 0 0-43.976-13.298l-12.364-29.516a68.156 68.156 0 0 1 82.966 25.064L512 163.154l3.216-4.824A68.112 68.112 0 0 1 640 196.112v1.072a68.248 68.248 0 0 1-28.522 55.416l-90.18 64.412a16 16 0 0 1-18.6 0L412.524 252.6A68.244 68.244 0 0 1 384 197.184v-1.072a67.702 67.702 0 0 1 5.266-26.294l29.516 12.364A35.852 35.852 0 0 0 416 196.112zM336 368h400v32H336z m-32 32h-32v-32h32z m32 64h400v32H336z m-64 0h32v32h-32z m64 96h368v32H336z m-64 0h32v32h-32z m64 96h320v32H336z m-64 0h32v32h-32z m64 96h304v32H336z m-64 0h32v32h-32z m696.622-457.42a47.656 47.656 0 0 0-65.048 16.696L864 378.024V240h32v-32h-32V176h112a16 16 0 0 0 16-16V112a80.09 80.09 0 0 0-80-80H240a79.774 79.774 0 0 0-73.474 48.286l-49.018-17.974-11.016 30.044L160 111.976V208H128v32h32v96.026l-46.234 16.952 11.016 30.044L160 370.108V432h32v-73.626l197.508-72.418-11.016-30.044L192 324.292V240h160v-32H192V123.708l154.492 56.648 11.016-30.044-160.86-58.98A47.866 47.866 0 0 1 240 64h607.972A79.432 79.432 0 0 0 832 112v96h-160v32h160v192l-71.05 119.84 27.526 16.32 118.462-199.8 26.698 15.712-192.068 323.948-26.696-15.712 54.632-92.148-27.528-16.32-62.818 105.96a16.016 16.016 0 0 0-2.182 7.04h-0.016l-4.92 70.042a16 16 0 0 0 24.62 14.576l59.2-38.104-0.016-0.024a15.886 15.886 0 0 0 5.118-5.27L832 618.236V800h32V564.262l121.378-204.726a47.34 47.34 0 0 0-16.756-64.956zM864 112a48 48 0 0 1 96 0v32h-96z m-157.8 625.258l0.872-12.41 9.616 5.658z m251.652-394.042l-7.896 13.32-26.7-15.712 7.844-13.228a15.6 15.6 0 0 1 21.29-5.438 15.338 15.338 0 0 1 5.462 21.058zM96 240H32v-32h64zM74.492 80.622l-48-17.6 11.016-30.044 48 17.6z m-36.984 334.4l-11.016-30.044 64-23.466 11.016 30.042zM928 208h64v32h-64zM677.508 180.356l-11.016-30.044 144-52.8 11.016 30.042z m-43.016 105.6l11.016-30.044 160 58.666-11.016 30.044z" p-id="8721"></path></svg>